<svg xmlns="http://www.w3.org/2000/svg" viewBox="0 0 116.7 93.7"><defs><style>.a{fill:#fff;}</style></defs><path class="a" d="M17.43,93.7H99.27c11.23,0,17.43-6.2,17.43-17.33v-59C116.7,6.15,110.5,0,99.27,0H17.43C6.2,0,0,6.15,0,17.33v59C0,87.55,6.2,93.7,17.43,93.7ZM13.09,19c0-4.1,2-5.9,5.86-5.9h78.8c3.81,0,5.86,1.8,5.86,5.9V65.82L82.76,46.34a10.91,10.91,0,0,0-7.27-2.93,10.71,10.71,0,0,0-7.28,2.88L46.19,66l-8.93-8.06a10,10,0,0,0-6.64-2.78,9,9,0,0,0-6.25,2.68l-11.28,10ZM40.87,48.58A12.13,12.13,0,1,0,28.71,36.47,12.13,12.13,0,0,0,40.87,48.58Z"/></svg>