<svg xmlns="http://www.w3.org/2000/svg" viewBox="0 0 115.14 89.89"><defs><style>.a{fill:#fff;}</style></defs><path class="a" d="M15.33,89.89H99.8c10.26,0,15.34-5.08,15.34-15.13V15.14C115.14,5.08,110.06,0,99.8,0H15.33C5.13,0,0,5,0,15.14V74.76C0,84.86,5.13,89.89,15.33,89.89ZM81.1,44.82a11,11,0,0,0-7.37-3,10.56,10.56,0,0,0-7.32,2.93L44.34,64.5l-9-8.2a10,10,0,0,0-6.59-2.78,9.42,9.42,0,0,0-6.3,2.73L7.86,69.38V15.53c0-5.08,2.69-7.67,7.57-7.67H99.71c4.83,0,7.57,2.59,7.57,7.67v53.9Zm-44.72.54A11.53,11.53,0,1,0,24.85,33.84,11.53,11.53,0,0,0,36.38,45.36Z"/></svg>