<?xml version="1.0" encoding="UTF-8"?>
<!--Generator: Apple Native CoreSVG 123-->
<!DOCTYPE svg
PUBLIC "-//W3C//DTD SVG 1.1//EN"
       "http://www.w3.org/Graphics/SVG/1.1/DTD/svg11.dtd">
<svg version="1.1" xmlns="http://www.w3.org/2000/svg" xmlns:xlink="http://www.w3.org/1999/xlink" width="3300" height="2200">
 <!--glyph: "uni10044B.medium", point size: 100.000000, font version: "Version 15.0d7e11", template writer version: "5"-->
 <g id="Notes">
  <rect height="2200" id="artboard" style="fill:white;opacity:1" width="3300" x="0" y="0"/>
  <line id="" style="fill:none;stroke:black;opacity:1;stroke-width:0.5;" x1="263" x2="3036" y1="292" y2="292"/>
  <text style="stroke:none;fill:black;font-family:-apple-system,&quot;SF Pro Display&quot;,&quot;SF Pro Text&quot;,Helvetica,sans-serif;font-weight:bold;" transform="matrix(1 0 0 1 263 322)">Weight/Scale Variations</text>
  <text style="stroke:none;fill:black;font-family:-apple-system,&quot;SF Pro Display&quot;,&quot;SF Pro Text&quot;,Helvetica,sans-serif;text-anchor:middle;" transform="matrix(1 0 0 1 559.711 322)">Ultralight</text>
  <text style="stroke:none;fill:black;font-family:-apple-system,&quot;SF Pro Display&quot;,&quot;SF Pro Text&quot;,Helvetica,sans-serif;text-anchor:middle;" transform="matrix(1 0 0 1 856.422 322)">Thin</text>
  <text style="stroke:none;fill:black;font-family:-apple-system,&quot;SF Pro Display&quot;,&quot;SF Pro Text&quot;,Helvetica,sans-serif;text-anchor:middle;" transform="matrix(1 0 0 1 1153.13 322)">Light</text>
  <text style="stroke:none;fill:black;font-family:-apple-system,&quot;SF Pro Display&quot;,&quot;SF Pro Text&quot;,Helvetica,sans-serif;text-anchor:middle;" transform="matrix(1 0 0 1 1449.84 322)">Regular</text>
  <text style="stroke:none;fill:black;font-family:-apple-system,&quot;SF Pro Display&quot;,&quot;SF Pro Text&quot;,Helvetica,sans-serif;text-anchor:middle;" transform="matrix(1 0 0 1 1746.56 322)">Medium</text>
  <text style="stroke:none;fill:black;font-family:-apple-system,&quot;SF Pro Display&quot;,&quot;SF Pro Text&quot;,Helvetica,sans-serif;text-anchor:middle;" transform="matrix(1 0 0 1 2043.27 322)">Semibold</text>
  <text style="stroke:none;fill:black;font-family:-apple-system,&quot;SF Pro Display&quot;,&quot;SF Pro Text&quot;,Helvetica,sans-serif;text-anchor:middle;" transform="matrix(1 0 0 1 2339.98 322)">Bold</text>
  <text style="stroke:none;fill:black;font-family:-apple-system,&quot;SF Pro Display&quot;,&quot;SF Pro Text&quot;,Helvetica,sans-serif;text-anchor:middle;" transform="matrix(1 0 0 1 2636.69 322)">Heavy</text>
  <text style="stroke:none;fill:black;font-family:-apple-system,&quot;SF Pro Display&quot;,&quot;SF Pro Text&quot;,Helvetica,sans-serif;text-anchor:middle;" transform="matrix(1 0 0 1 2933.4 322)">Black</text>
  <line id="" style="fill:none;stroke:black;opacity:1;stroke-width:0.5;" x1="263" x2="3036" y1="1903" y2="1903"/>
  <g id="" transform="matrix(1 0 0 1 263 1933)">
   <path d="M 9.24805 0.830078 C 13.5547 0.830078 17.1387 -2.74414 17.1387 -7.05078 C 17.1387 -11.3574 13.5449 -14.9316 9.23828 -14.9316 C 4.94141 -14.9316 1.36719 -11.3574 1.36719 -7.05078 C 1.36719 -2.74414 4.95117 0.830078 9.24805 0.830078 Z M 9.24805 -0.654297 C 5.70312 -0.654297 2.87109 -3.49609 2.87109 -7.05078 C 2.87109 -10.6055 5.69336 -13.4473 9.23828 -13.4473 C 12.793 -13.4473 15.6348 -10.6055 15.6445 -7.05078 C 15.6543 -3.49609 12.8027 -0.654297 9.24805 -0.654297 Z M 9.22852 -3.42773 C 9.69727 -3.42773 9.9707 -3.74023 9.9707 -4.25781 L 9.9707 -6.31836 L 12.1973 -6.31836 C 12.6953 -6.31836 13.0371 -6.57227 13.0371 -7.04102 C 13.0371 -7.51953 12.7148 -7.7832 12.1973 -7.7832 L 9.9707 -7.7832 L 9.9707 -10.0098 C 9.9707 -10.5273 9.69727 -10.8496 9.22852 -10.8496 C 8.75977 -10.8496 8.50586 -10.5078 8.50586 -10.0098 L 8.50586 -7.7832 L 6.29883 -7.7832 C 5.78125 -7.7832 5.44922 -7.51953 5.44922 -7.04102 C 5.44922 -6.57227 5.80078 -6.31836 6.29883 -6.31836 L 8.50586 -6.31836 L 8.50586 -4.25781 C 8.50586 -3.75977 8.75977 -3.42773 9.22852 -3.42773 Z"/>
  </g>
  <g id="" transform="matrix(1 0 0 1 281.506 1933)">
   <path d="M 11.709 2.91016 C 17.1582 2.91016 21.6699 -1.60156 21.6699 -7.05078 C 21.6699 -12.4902 17.1484 -17.0117 11.6992 -17.0117 C 6.25977 -17.0117 1.74805 -12.4902 1.74805 -7.05078 C 1.74805 -1.60156 6.26953 2.91016 11.709 2.91016 Z M 11.709 1.25 C 7.09961 1.25 3.41797 -2.44141 3.41797 -7.05078 C 3.41797 -11.6504 7.08984 -15.3516 11.6992 -15.3516 C 16.3086 -15.3516 20 -11.6504 20.0098 -7.05078 C 20.0195 -2.44141 16.3184 1.25 11.709 1.25 Z M 11.6895 -2.41211 C 12.207 -2.41211 12.5195 -2.77344 12.5195 -3.33984 L 12.5195 -6.23047 L 15.5762 -6.23047 C 16.123 -6.23047 16.5039 -6.51367 16.5039 -7.03125 C 16.5039 -7.55859 16.1426 -7.86133 15.5762 -7.86133 L 12.5195 -7.86133 L 12.5195 -10.9277 C 12.5195 -11.5039 12.207 -11.8555 11.6895 -11.8555 C 11.1719 -11.8555 10.8789 -11.4844 10.8789 -10.9277 L 10.8789 -7.86133 L 7.83203 -7.86133 C 7.26562 -7.86133 6.89453 -7.55859 6.89453 -7.03125 C 6.89453 -6.51367 7.28516 -6.23047 7.83203 -6.23047 L 10.8789 -6.23047 L 10.8789 -3.33984 C 10.8789 -2.79297 11.1719 -2.41211 11.6895 -2.41211 Z"/>
  </g>
  <g id="" transform="matrix(1 0 0 1 304.924 1933)">
   <path d="M 14.9707 5.67383 C 21.9336 5.67383 27.6953 -0.078125 27.6953 -7.04102 C 27.6953 -14.0039 21.9238 -19.7559 14.9609 -19.7559 C 8.00781 -19.7559 2.25586 -14.0039 2.25586 -7.04102 C 2.25586 -0.078125 8.01758 5.67383 14.9707 5.67383 Z M 14.9707 3.85742 C 8.93555 3.85742 4.08203 -1.00586 4.08203 -7.04102 C 4.08203 -13.0762 8.92578 -17.9395 14.9609 -17.9395 C 21.0059 -17.9395 25.8594 -13.0762 25.8691 -7.04102 C 25.8789 -1.00586 21.0156 3.85742 14.9707 3.85742 Z M 14.9512 -1.06445 C 15.5176 -1.06445 15.8691 -1.45508 15.8691 -2.06055 L 15.8691 -6.13281 L 20.1074 -6.13281 C 20.6934 -6.13281 21.1133 -6.46484 21.1133 -7.02148 C 21.1133 -7.59766 20.7227 -7.93945 20.1074 -7.93945 L 15.8691 -7.93945 L 15.8691 -12.1875 C 15.8691 -12.8027 15.5176 -13.1934 14.9512 -13.1934 C 14.3848 -13.1934 14.0625 -12.7832 14.0625 -12.1875 L 14.0625 -7.93945 L 9.83398 -7.93945 C 9.21875 -7.93945 8.80859 -7.59766 8.80859 -7.02148 C 8.80859 -6.46484 9.23828 -6.13281 9.83398 -6.13281 L 14.0625 -6.13281 L 14.0625 -2.06055 C 14.0625 -1.47461 14.3848 -1.06445 14.9512 -1.06445 Z"/>
  </g>
  <text style="stroke:none;fill:black;font-family:-apple-system,&quot;SF Pro Display&quot;,&quot;SF Pro Text&quot;,Helvetica,sans-serif;font-weight:bold;" transform="matrix(1 0 0 1 263 1953)">Design Variations</text>
  <text style="stroke:none;fill:black;font-family:-apple-system,&quot;SF Pro Display&quot;,&quot;SF Pro Text&quot;,Helvetica,sans-serif;" transform="matrix(1 0 0 1 263 1971)">Symbols are supported in up to nine weights and three scales.</text>
  <text style="stroke:none;fill:black;font-family:-apple-system,&quot;SF Pro Display&quot;,&quot;SF Pro Text&quot;,Helvetica,sans-serif;" transform="matrix(1 0 0 1 263 1989)">For optimal layout with text and other symbols, vertically align</text>
  <text style="stroke:none;fill:black;font-family:-apple-system,&quot;SF Pro Display&quot;,&quot;SF Pro Text&quot;,Helvetica,sans-serif;" transform="matrix(1 0 0 1 263 2007)">symbols with the adjacent text.</text>
  <rect height="14" id="" style="fill:#00AEEF;stroke:none;opacity:0.4;" width="3" x="776" y="1919"/>
  <g id="" transform="matrix(1 0 0 1 779 1933)">
   <path d="M 10.5273 0 L 12.373 0 L 7.17773 -14.0918 L 5.43945 -14.0918 L 0.244141 0 L 2.08984 0 L 3.50586 -4.0332 L 9.11133 -4.0332 Z M 6.2793 -11.9531 L 6.33789 -11.9531 L 8.59375 -5.52734 L 4.02344 -5.52734 Z"/>
  </g>
  <rect height="14" id="" style="fill:#00AEEF;stroke:none;opacity:0.4;" width="3" x="791.617" y="1919"/>
  <text style="stroke:none;fill:black;font-family:-apple-system,&quot;SF Pro Display&quot;,&quot;SF Pro Text&quot;,Helvetica,sans-serif;font-weight:bold;" transform="matrix(1 0 0 1 776 1953)">Margins</text>
  <text style="stroke:none;fill:black;font-family:-apple-system,&quot;SF Pro Display&quot;,&quot;SF Pro Text&quot;,Helvetica,sans-serif;" transform="matrix(1 0 0 1 776 1971)">Leading and trailing margins on the left and right side of each symbol</text>
  <text style="stroke:none;fill:black;font-family:-apple-system,&quot;SF Pro Display&quot;,&quot;SF Pro Text&quot;,Helvetica,sans-serif;" transform="matrix(1 0 0 1 776 1989)">can be adjusted by modifying the width of the blue rectangles.</text>
  <text style="stroke:none;fill:black;font-family:-apple-system,&quot;SF Pro Display&quot;,&quot;SF Pro Text&quot;,Helvetica,sans-serif;" transform="matrix(1 0 0 1 776 2007)">Modifications are automatically applied proportionally to all</text>
  <text style="stroke:none;fill:black;font-family:-apple-system,&quot;SF Pro Display&quot;,&quot;SF Pro Text&quot;,Helvetica,sans-serif;" transform="matrix(1 0 0 1 776 2025)">scales and weights.</text>
  <g id="" transform="matrix(1 0 0 1 1289 1933)">
   <path d="M 2.83203 3.11523 L 4.375 4.6582 C 5.22461 5.48828 6.19141 5.41992 7.06055 4.46289 L 17.2754 -6.66016 C 17.7051 -6.36719 18.0957 -6.37695 18.5645 -6.47461 L 19.6094 -6.68945 L 20.3027 -5.99609 L 20.2539 -5.47852 C 20.1855 -4.95117 20.3516 -4.53125 20.8496 -4.0332 L 21.6602 -3.22266 C 22.168 -2.71484 22.8223 -2.68555 23.3008 -3.16406 L 26.5527 -6.41602 C 27.0312 -6.89453 27.0117 -7.54883 26.5039 -8.05664 L 25.6836 -8.87695 C 25.1855 -9.375 24.7754 -9.55078 24.2383 -9.47266 L 23.7109 -9.41406 L 23.0566 -10.0781 L 23.3398 -11.2207 C 23.4863 -11.7871 23.3398 -12.2559 22.7148 -12.8613 L 20.3027 -15.2539 C 16.7578 -18.7793 12.2266 -18.6719 9.11133 -15.5371 C 8.69141 -15.1074 8.64258 -14.5215 8.91602 -14.0918 C 9.15039 -13.7207 9.62891 -13.4961 10.2734 -13.6621 C 11.7871 -14.043 13.3008 -13.9258 14.7852 -12.9199 L 14.1602 -11.3379 C 13.9258 -10.752 13.9453 -10.2734 14.1797 -9.83398 L 3.01758 0.439453 C 2.08008 1.30859 1.97266 2.25586 2.83203 3.11523 Z M 10.6738 -15.1465 C 13.3398 -17.1387 16.6504 -16.8262 19.0527 -14.4141 L 21.6797 -11.8066 C 21.9141 -11.5723 21.9434 -11.3867 21.8848 -11.0938 L 21.5039 -9.53125 L 23.0762 -7.95898 L 24.043 -8.04688 C 24.3262 -8.07617 24.4141 -8.05664 24.6387 -7.83203 L 25.2637 -7.20703 L 22.5098 -4.46289 L 21.8848 -5.07812 C 21.6602 -5.30273 21.6406 -5.40039 21.6699 -5.68359 L 21.7578 -6.64062 L 20.1953 -8.20312 L 18.5742 -7.89062 C 18.291 -7.83203 18.1445 -7.83203 17.9102 -8.07617 L 15.7324 -10.2539 C 15.5078 -10.4883 15.4785 -10.625 15.6055 -10.9473 L 16.5527 -13.2227 C 14.9512 -14.7559 12.8418 -15.6055 10.8008 -14.9512 C 10.7129 -14.9219 10.6445 -14.9414 10.6152 -14.9805 C 10.5859 -15.0293 10.5859 -15.0781 10.6738 -15.1465 Z M 4.10156 2.41211 C 3.61328 1.91406 3.78906 1.61133 4.12109 1.30859 L 15.0781 -8.80859 L 16.3086 -7.57812 L 6.15234 3.34961 C 5.84961 3.68164 5.46875 3.7793 5.06836 3.37891 Z"/>
  </g>
  <text style="stroke:none;fill:black;font-family:-apple-system,&quot;SF Pro Display&quot;,&quot;SF Pro Text&quot;,Helvetica,sans-serif;font-weight:bold;" transform="matrix(1 0 0 1 1289 1953)">Exporting</text>
  <text style="stroke:none;fill:black;font-family:-apple-system,&quot;SF Pro Display&quot;,&quot;SF Pro Text&quot;,Helvetica,sans-serif;" transform="matrix(1 0 0 1 1289 1971)">Symbols should be outlined when exporting to ensure the</text>
  <text style="stroke:none;fill:black;font-family:-apple-system,&quot;SF Pro Display&quot;,&quot;SF Pro Text&quot;,Helvetica,sans-serif;" transform="matrix(1 0 0 1 1289 1989)">design is preserved when submitting to Xcode.</text>
  <text id="template-version" style="stroke:none;fill:black;font-family:-apple-system,&quot;SF Pro Display&quot;,&quot;SF Pro Text&quot;,Helvetica,sans-serif;text-anchor:end;" transform="matrix(1 0 0 1 3036 1933)">Template v.1.0</text>
  <text style="stroke:none;fill:black;font-family:-apple-system,&quot;SF Pro Display&quot;,&quot;SF Pro Text&quot;,Helvetica,sans-serif;text-anchor:end;" transform="matrix(1 0 0 1 3036 1951)">Generated from app</text>
  <text style="stroke:none;fill:black;font-family:-apple-system,&quot;SF Pro Display&quot;,&quot;SF Pro Text&quot;,Helvetica,sans-serif;text-anchor:end;" transform="matrix(1 0 0 1 3036 1969)">Typeset at 100 points</text>
  <text style="stroke:none;fill:black;font-family:-apple-system,&quot;SF Pro Display&quot;,&quot;SF Pro Text&quot;,Helvetica,sans-serif;" transform="matrix(1 0 0 1 263 726)">Small</text>
  <text style="stroke:none;fill:black;font-family:-apple-system,&quot;SF Pro Display&quot;,&quot;SF Pro Text&quot;,Helvetica,sans-serif;" transform="matrix(1 0 0 1 263 1156)">Medium</text>
  <text style="stroke:none;fill:black;font-family:-apple-system,&quot;SF Pro Display&quot;,&quot;SF Pro Text&quot;,Helvetica,sans-serif;" transform="matrix(1 0 0 1 263 1586)">Large</text>
 </g>
 <g id="Guides">
  <g id="H-reference" style="fill:#27AAE1;stroke:none;" transform="matrix(1 0 0 1 339 696)">
   <path d="M 54.9316 0 L 57.666 0 L 30.5664 -70.459 L 28.0762 -70.459 L 0.976562 0 L 3.66211 0 L 12.9395 -24.4629 L 45.7031 -24.4629 Z M 29.1992 -67.0898 L 29.4434 -67.0898 L 44.8242 -26.709 L 13.8184 -26.709 Z"/>
  </g>
  <line id="Baseline-S" style="fill:none;stroke:#27AAE1;opacity:1;stroke-width:0.577;" x1="263" x2="3036" y1="696" y2="696"/>
  <line id="Capline-S" style="fill:none;stroke:#27AAE1;opacity:1;stroke-width:0.577;" x1="263" x2="3036" y1="625.541" y2="625.541"/>
  <g id="H-reference" style="fill:#27AAE1;stroke:none;" transform="matrix(1 0 0 1 339 1126)">
   <path d="M 54.9316 0 L 57.666 0 L 30.5664 -70.459 L 28.0762 -70.459 L 0.976562 0 L 3.66211 0 L 12.9395 -24.4629 L 45.7031 -24.4629 Z M 29.1992 -67.0898 L 29.4434 -67.0898 L 44.8242 -26.709 L 13.8184 -26.709 Z"/>
  </g>
  <line id="Baseline-M" style="fill:none;stroke:#27AAE1;opacity:1;stroke-width:0.577;" x1="263" x2="3036" y1="1126" y2="1126"/>
  <line id="Capline-M" style="fill:none;stroke:#27AAE1;opacity:1;stroke-width:0.577;" x1="263" x2="3036" y1="1055.54" y2="1055.54"/>
  <g id="H-reference" style="fill:#27AAE1;stroke:none;" transform="matrix(1 0 0 1 339 1556)">
   <path d="M 54.9316 0 L 57.666 0 L 30.5664 -70.459 L 28.0762 -70.459 L 0.976562 0 L 3.66211 0 L 12.9395 -24.4629 L 45.7031 -24.4629 Z M 29.1992 -67.0898 L 29.4434 -67.0898 L 44.8242 -26.709 L 13.8184 -26.709 Z"/>
  </g>
  <line id="Baseline-L" style="fill:none;stroke:#27AAE1;opacity:1;stroke-width:0.577;" x1="263" x2="3036" y1="1556" y2="1556"/>
  <line id="Capline-L" style="fill:none;stroke:#27AAE1;opacity:1;stroke-width:0.577;" x1="263" x2="3036" y1="1485.54" y2="1485.54"/>
  <rect height="119.336" id="left-margin" style="fill:#00AEEF;stroke:none;opacity:0.4;" width="12.4512" x="1392.37" y="1030.79"/>
  <rect height="119.336" id="right-margin" style="fill:#00AEEF;stroke:none;opacity:0.4;" width="12.4512" x="1494.86" y="1030.79"/>
 </g>
 <g id="Symbols">
  <g id="Black-L" transform="matrix(1 0 0 1 2856.13 1556)">
   <path d="M 129.785 -87.5488 C 122.998 -94.2871 114.111 -96.2891 100.391 -96.2891 L 54.1504 -96.2891 C 40.4297 -96.2891 31.4941 -94.2871 24.7559 -87.5488 C 18.0176 -80.8105 16.0645 -72.0703 16.0645 -58.252 L 16.0645 -12.1582 C 16.0645 1.66016 18.0176 10.498 24.7559 17.1387 C 31.543 23.9258 40.4297 25.9277 54.1504 25.9277 L 100.391 25.9277 C 114.111 25.9277 123.047 23.9258 129.785 17.1387 C 136.523 10.4004 138.477 1.66016 138.477 -12.1582 L 138.477 -58.252 C 138.477 -72.0703 136.523 -80.8594 129.785 -87.5488 Z M 118.262 -60.0098 L 118.262 -10.4004 C 118.262 -3.80859 117.383 -0.195312 114.941 2.34375 C 112.451 4.73633 108.691 5.71289 102.148 5.71289 L 52.3926 5.71289 C 45.8496 5.71289 42.0898 4.73633 39.5996 2.34375 C 37.1582 -0.195312 36.3281 -3.80859 36.3281 -10.4004 L 36.3281 -60.0098 C 36.3281 -66.6016 37.1582 -70.2148 39.5996 -72.7051 C 42.0898 -75.1465 45.8496 -76.0742 52.3926 -76.0742 L 102.148 -76.0742 C 108.691 -76.0742 112.451 -75.1465 114.941 -72.7051 C 117.383 -70.2148 118.262 -66.6016 118.262 -60.0098 Z"/>
  </g>
  <g id="Heavy-L" transform="matrix(1 0 0 1 2560.35 1556)">
   <path d="M 128.32 -86.9629 C 121.68 -93.5059 112.891 -95.3613 99.8047 -95.3613 L 52.832 -95.3613 C 39.7949 -95.3613 30.957 -93.5059 24.4141 -86.9141 C 17.8223 -80.3711 16.0645 -71.6797 16.0645 -58.5938 L 16.0645 -11.8652 C 16.0645 1.36719 17.8223 10.0586 24.4141 16.6016 C 31.0059 23.1445 39.7949 25 52.9297 25 L 99.8047 25 C 112.891 25 121.729 23.1445 128.32 16.6016 C 134.863 10.0098 136.621 1.36719 136.621 -11.8652 L 136.621 -58.4961 C 136.621 -71.7285 134.863 -80.4199 128.32 -86.9629 Z M 119.141 -60.2539 L 119.141 -10.1074 C 119.141 -3.41797 118.213 0.927734 115.479 3.75977 C 112.646 6.54297 108.203 7.4707 101.514 7.4707 L 51.1719 7.4707 C 44.4824 7.4707 40.0391 6.49414 37.207 3.75977 C 34.4727 0.927734 33.5938 -3.41797 33.5938 -10.1074 L 33.5938 -60.2051 C 33.5938 -66.9434 34.4727 -71.2891 37.207 -74.1211 C 40.0391 -76.9043 44.5312 -77.832 51.2207 -77.832 L 101.514 -77.832 C 108.203 -77.832 112.646 -76.8555 115.479 -74.1211 C 118.262 -71.2891 119.141 -66.9434 119.141 -60.2539 Z"/>
  </g>
  <g id="Bold-L" transform="matrix(1 0 0 1 2264.66 1556)">
   <path d="M 126.66 -86.2793 C 120.215 -92.6758 111.523 -94.2871 99.0723 -94.2871 L 51.3672 -94.2871 C 39.1113 -94.2871 30.3711 -92.6758 23.9746 -86.2793 C 17.627 -79.8828 16.0645 -71.2891 16.0645 -58.9844 L 16.0645 -11.5234 C 16.0645 0.976562 17.5781 9.57031 23.9746 15.918 C 30.4199 22.3145 39.0625 23.9258 51.5137 23.9258 L 99.0723 23.9258 C 111.523 23.9258 120.264 22.3145 126.66 15.918 C 133.008 9.52148 134.57 0.976562 134.57 -11.5234 L 134.57 -58.7891 C 134.57 -71.3379 133.008 -79.9316 126.66 -86.2793 Z M 120.117 -60.5469 L 120.117 -9.81445 C 120.117 -2.92969 119.189 2.14844 116.064 5.32227 C 112.891 8.49609 107.617 9.47266 100.83 9.47266 L 49.8047 9.47266 C 42.9688 9.47266 37.7441 8.49609 34.5703 5.32227 C 31.4453 2.14844 30.5176 -2.92969 30.5176 -9.81445 L 30.5176 -60.4004 C 30.5176 -67.3828 31.4453 -72.5098 34.5703 -75.6836 C 37.7441 -78.8574 43.0176 -79.834 49.9512 -79.834 L 100.83 -79.834 C 107.617 -79.834 112.891 -78.8086 116.064 -75.6836 C 119.189 -72.5098 120.117 -67.3828 120.117 -60.5469 Z"/>
  </g>
  <g id="Semibold-L" transform="matrix(1 0 0 1 1968.68 1556)">
   <path d="M 125.488 -85.8398 C 119.189 -92.0898 110.596 -93.5547 98.6328 -93.5547 L 50.3418 -93.5547 C 38.623 -93.5547 29.9805 -92.041 23.7305 -85.791 C 17.4316 -79.541 16.0645 -71.0449 16.0645 -59.2285 L 16.0645 -11.3281 C 16.0645 0.732422 17.4316 9.27734 23.6816 15.4785 C 30.0293 21.7285 38.5742 23.1934 50.5859 23.1934 L 98.6328 23.1934 C 110.596 23.1934 119.238 21.7285 125.488 15.4785 C 131.738 9.22852 133.105 0.732422 133.105 -11.3281 L 133.105 -59.0332 C 133.105 -71.0449 131.738 -79.5898 125.488 -85.8398 Z M 120.801 -60.7422 L 120.801 -9.57031 C 120.801 -2.63672 119.824 3.02734 116.455 6.44531 C 113.037 9.86328 107.227 10.8398 100.342 10.8398 L 48.8281 10.8398 C 41.9434 10.8398 36.1816 9.81445 32.7637 6.44531 C 29.3457 3.02734 28.418 -2.63672 28.418 -9.57031 L 28.418 -60.5469 C 28.418 -67.627 29.3457 -73.3887 32.7148 -76.8066 C 36.1328 -80.2246 41.9922 -81.2012 49.0723 -81.2012 L 100.342 -81.2012 C 107.227 -81.2012 113.037 -80.1758 116.455 -76.7578 C 119.824 -73.3398 120.801 -67.6758 120.801 -60.7422 Z"/>
  </g>
  <g id="Medium-L" transform="matrix(1 0 0 1 1672.51 1556)">
   <path d="M 124.609 -85.4492 C 118.408 -91.6504 109.863 -92.9688 98.2422 -92.9688 L 49.6094 -92.9688 C 38.2812 -92.9688 29.6875 -91.6016 23.5352 -85.4492 C 17.334 -79.248 16.0645 -70.8008 16.0645 -59.4238 L 16.0645 -11.1328 C 16.0645 0.537109 17.334 8.98438 23.4863 15.1367 C 29.6875 21.3379 38.2324 22.6562 49.8535 22.6562 L 98.2422 22.6562 C 109.863 22.6562 118.457 21.3379 124.609 15.1367 C 130.811 8.98438 132.031 0.537109 132.031 -11.1328 L 132.031 -59.1797 C 132.031 -70.8496 130.811 -79.3457 124.609 -85.4492 Z M 121.289 -60.8887 L 121.289 -9.42383 C 121.289 -2.39258 120.312 3.66211 116.748 7.27539 C 113.135 10.8887 106.934 11.9141 99.9512 11.9141 L 48.1445 11.9141 C 41.1621 11.9141 34.9609 10.8398 31.3477 7.27539 C 27.7832 3.66211 26.8066 -2.39258 26.8066 -9.42383 L 26.8066 -60.6445 C 26.8066 -67.8711 27.7832 -74.0234 31.3477 -77.6367 C 34.9121 -81.25 41.2109 -82.2266 48.3887 -82.2266 L 99.9512 -82.2266 C 106.934 -82.2266 113.135 -81.2012 116.748 -77.5879 C 120.312 -73.9746 121.289 -67.9199 121.289 -60.8887 Z"/>
  </g>
  <g id="Regular-L" transform="matrix(1 0 0 1 1376.5 1556)">
   <path d="M 123.486 -85.0098 C 117.383 -91.0645 108.936 -92.2363 97.7539 -92.2363 L 48.584 -92.2363 C 37.793 -92.2363 29.2969 -91.0156 23.2422 -84.9609 C 17.1875 -78.9551 16.0645 -70.5566 16.0645 -59.7168 L 16.0645 -10.9375 C 16.0645 0.292969 17.1387 8.69141 23.1934 14.6973 C 29.2969 20.752 37.7441 21.9238 48.9258 21.9238 L 97.7539 21.9238 C 108.936 21.9238 117.432 20.752 123.486 14.6973 C 129.541 8.64258 130.615 0.292969 130.615 -10.9375 L 130.615 -59.375 C 130.615 -70.6055 129.541 -79.0039 123.486 -85.0098 Z M 121.973 -61.084 L 121.973 -9.22852 C 121.973 -2.09961 120.947 4.49219 117.139 8.34961 C 113.281 12.207 106.543 13.2812 99.4629 13.2812 L 47.2168 13.2812 C 40.1367 13.2812 33.3984 12.207 29.541 8.34961 C 25.7324 4.49219 24.707 -2.09961 24.707 -9.22852 L 24.707 -60.791 C 24.707 -68.1641 25.7324 -74.8535 29.541 -78.7109 C 33.3496 -82.5684 40.1855 -83.5938 47.5098 -83.5938 L 99.4629 -83.5938 C 106.543 -83.5938 113.281 -82.5195 117.139 -78.6621 C 120.996 -74.8047 121.973 -68.2129 121.973 -61.084 Z"/>
  </g>
  <g id="Light-L" transform="matrix(1 0 0 1 1080.89 1556)">
   <path d="M 121.582 -84.2773 C 116.016 -89.7949 108.398 -91.2109 96.6309 -91.2109 L 47.3633 -91.2109 C 36.2305 -91.2109 28.5156 -89.7461 22.9492 -84.2285 C 17.4316 -78.7109 16.0645 -71.0938 16.0645 -59.9121 L 16.0645 -10.8887 C 16.0645 0.927734 17.3828 8.49609 22.9004 14.0137 C 28.5156 19.5312 36.1328 20.9473 47.8516 20.9473 L 96.6309 20.9473 C 108.398 20.9473 116.064 19.5312 121.582 14.0137 C 127.1 8.44727 128.418 0.927734 128.418 -10.8887 L 128.418 -59.375 C 128.418 -71.1914 127.1 -78.8086 121.582 -84.2773 Z M 121.826 -61.084 L 121.826 -9.22852 C 121.826 -1.26953 120.508 5.22461 116.699 9.08203 C 112.793 13.0371 106.201 14.3066 98.291 14.3066 L 46.1914 14.3066 C 38.3301 14.3066 31.6895 12.9883 27.832 9.08203 C 23.9258 5.22461 22.7051 -1.26953 22.7051 -9.22852 L 22.7051 -60.5469 C 22.7051 -68.8965 23.9258 -75.5371 27.7832 -79.4434 C 31.6406 -83.3496 38.4277 -84.5703 46.6797 -84.5703 L 98.291 -84.5703 C 106.201 -84.5703 112.793 -83.252 116.699 -79.3945 C 120.557 -75.4883 121.826 -68.9941 121.826 -61.084 Z"/>
  </g>
  <g id="Thin-L" transform="matrix(1 0 0 1 785.621 1556)">
   <path d="M 119.092 -83.3008 C 114.16 -88.1348 107.617 -89.8438 95.1172 -89.8438 L 45.752 -89.8438 C 34.1309 -89.8438 27.4414 -88.0859 22.6074 -83.2031 C 17.7734 -78.3691 16.0645 -71.8262 16.0645 -60.1562 L 16.0645 -10.8398 C 16.0645 1.75781 17.6758 8.30078 22.5098 13.0859 C 27.4414 17.9199 33.9844 19.6289 46.4844 19.6289 L 95.1172 19.6289 C 107.617 19.6289 114.258 17.9199 119.092 13.0859 C 123.926 8.20312 125.537 1.75781 125.537 -10.8398 L 125.537 -59.375 C 125.537 -71.9727 123.926 -78.5156 119.092 -83.3008 Z M 121.631 -61.0352 L 121.631 -9.22852 C 121.631 -0.195312 119.971 6.15234 116.113 10.0586 C 112.158 14.0625 105.713 15.6738 96.7285 15.6738 L 44.873 15.6738 C 35.9375 15.6738 29.4434 14.0137 25.5371 10.0586 C 21.582 6.15234 19.9707 -0.195312 19.9707 -9.22852 L 19.9707 -60.2539 C 19.9707 -69.9219 21.582 -76.4648 25.4395 -80.3711 C 29.3945 -84.375 36.084 -85.8887 45.6055 -85.8887 L 96.7285 -85.8887 C 105.713 -85.8887 112.158 -84.2285 116.113 -80.3223 C 120.02 -76.3672 121.631 -70.0684 121.631 -61.0352 Z"/>
  </g>
  <g id="Ultralight-L" transform="matrix(1 0 0 1 489.643 1556)">
   <path d="M 117.822 -82.8125 C 113.232 -87.3047 107.227 -89.1113 94.3359 -89.1113 L 44.9219 -89.1113 C 33.1055 -89.1113 26.9043 -87.207 22.4121 -82.7148 C 17.9199 -78.2227 16.0645 -72.2168 16.0645 -60.2539 L 16.0645 -10.791 C 16.0645 2.14844 17.8223 8.20312 22.3145 12.5977 C 26.9043 17.0898 32.9102 18.9453 45.8008 18.9453 L 94.3359 18.9453 C 107.227 18.9453 113.33 17.0898 117.822 12.5977 C 122.314 8.10547 124.072 2.14844 124.072 -10.791 L 124.072 -59.375 C 124.072 -72.3633 122.314 -78.3691 117.822 -82.8125 Z M 121.533 -60.9863 L 121.533 -9.22852 C 121.533 0.390625 119.678 6.64062 115.82 10.5469 C 111.865 14.5996 105.469 16.3574 95.9473 16.3574 L 44.1895 16.3574 C 34.7168 16.3574 28.2715 14.502 24.3652 10.5469 C 20.4102 6.64062 18.6035 0.390625 18.6035 -9.22852 L 18.6035 -60.1074 C 18.6035 -70.4102 20.4102 -76.9043 24.2676 -80.8594 C 28.2227 -84.9121 34.8633 -86.5723 45.0684 -86.5723 L 95.9473 -86.5723 C 105.469 -86.5723 111.865 -84.7168 115.82 -80.7617 C 119.775 -76.8066 121.533 -70.6055 121.533 -60.9863 Z"/>
  </g>
  <g id="Black-M" transform="matrix(1 0 0 1 2872.85 1126)">
   <path d="M 101.611 -76.1719 C 96.3867 -81.3477 89.7949 -83.3008 78.0273 -83.3008 L 43.0664 -83.3008 C 31.3477 -83.3008 24.707 -81.3477 19.5312 -76.1719 C 14.3555 -70.9961 12.4512 -64.5508 12.4512 -52.6855 L 12.4512 -17.7246 C 12.4512 -5.85938 14.3555 0.683594 19.5312 5.76172 C 24.7559 10.9375 31.3477 12.8906 43.0664 12.8906 L 78.0273 12.8906 C 89.7949 12.8906 96.4355 10.9375 101.611 5.76172 C 106.787 0.634766 108.643 -5.85938 108.643 -17.7246 L 108.643 -52.6855 C 108.643 -64.5508 106.787 -71.0938 101.611 -76.1719 Z M 90.3809 -54.0527 L 90.3809 -16.3574 C 90.3809 -10.9375 89.5996 -9.17969 88.1836 -7.66602 C 86.6211 -6.20117 84.7168 -5.37109 79.3945 -5.37109 L 41.6992 -5.37109 C 36.377 -5.37109 34.4727 -6.20117 32.959 -7.66602 C 31.4941 -9.17969 30.7617 -10.9375 30.7617 -16.3574 L 30.7617 -54.0527 C 30.7617 -59.4238 31.4941 -61.2305 32.959 -62.7441 C 34.4727 -64.209 36.377 -65.0391 41.6992 -65.0391 L 79.3945 -65.0391 C 84.7168 -65.0391 86.6211 -64.209 88.1836 -62.7441 C 89.5996 -61.2305 90.3809 -59.4238 90.3809 -54.0527 Z"/>
  </g>
  <g id="Heavy-M" transform="matrix(1 0 0 1 2576.85 1126)">
   <path d="M 100.439 -75.7324 C 95.2637 -80.8594 88.5742 -82.5195 77.6367 -82.5195 L 41.9434 -82.5195 C 31.0547 -82.5195 24.3164 -80.8594 19.1895 -75.7324 C 14.0625 -70.6055 12.4512 -64.0137 12.4512 -53.0273 L 12.4512 -17.4316 C 12.4512 -6.34766 14.0625 0.244141 19.1895 5.32227 C 24.3652 10.4492 31.0547 12.1582 41.9922 12.1582 L 77.6367 12.1582 C 88.5742 12.1582 95.3125 10.4492 100.439 5.32227 C 105.566 0.195312 107.227 -6.34766 107.227 -17.4316 L 107.227 -52.9785 C 107.227 -64.0137 105.566 -70.6543 100.439 -75.7324 Z M 91.3574 -54.3457 L 91.3574 -16.0645 C 91.3574 -10.7422 90.625 -8.1543 88.8184 -6.29883 C 86.9629 -4.49219 84.2773 -3.71094 79.0039 -3.71094 L 40.625 -3.71094 C 35.4004 -3.71094 32.666 -4.49219 30.8105 -6.29883 C 29.0039 -8.1543 28.2715 -10.7422 28.2715 -16.0645 L 28.2715 -54.2969 C 28.2715 -59.6191 29.0039 -62.2559 30.8105 -64.1113 C 32.666 -65.918 35.4004 -66.6992 40.6738 -66.6992 L 79.0039 -66.6992 C 84.2773 -66.6992 86.9629 -65.918 88.8184 -64.1113 C 90.6738 -62.2559 91.3574 -59.668 91.3574 -54.3457 Z"/>
  </g>
  <g id="Bold-M" transform="matrix(1 0 0 1 2280.97 1126)">
   <path d="M 99.1699 -75.1953 C 94.0918 -80.2734 87.2559 -81.6406 77.2461 -81.6406 L 40.7227 -81.6406 C 30.7617 -81.6406 23.9258 -80.2734 18.8477 -75.1953 C 13.7695 -70.1172 12.4512 -63.4277 12.4512 -53.3691 L 12.4512 -17.041 C 12.4512 -6.93359 13.7695 -0.195312 18.8477 4.83398 C 23.9746 9.91211 30.7617 11.2793 40.7715 11.2793 L 77.2461 11.2793 C 87.2559 11.2793 94.0918 9.91211 99.1699 4.83398 C 104.248 -0.244141 105.566 -6.93359 105.566 -17.041 L 105.566 -53.3203 C 105.566 -63.4277 104.248 -70.166 99.1699 -75.1953 Z M 92.4805 -54.6875 L 92.4805 -15.7227 C 92.4805 -10.498 91.7969 -6.98242 89.5996 -4.78516 C 87.3535 -2.53906 83.7402 -1.80664 78.6133 -1.80664 L 39.4531 -1.80664 C 34.2773 -1.80664 30.6641 -2.53906 28.418 -4.78516 C 26.2207 -6.98242 25.5371 -10.498 25.5371 -15.7227 L 25.5371 -54.5898 C 25.5371 -59.8633 26.2207 -63.3789 28.418 -65.625 C 30.6641 -67.8223 34.2773 -68.6035 39.502 -68.6035 L 78.6133 -68.6035 C 83.7402 -68.6035 87.3535 -67.8223 89.5996 -65.625 C 91.7969 -63.3789 92.4805 -59.8633 92.4805 -54.6875 Z"/>
  </g>
  <g id="Semibold-M" transform="matrix(1 0 0 1 1984.82 1126)">
   <path d="M 98.291 -74.8535 C 93.2129 -79.8828 86.377 -81.0547 76.9531 -81.0547 L 39.8438 -81.0547 C 30.5664 -81.0547 23.6328 -79.8828 18.6035 -74.8535 C 13.5742 -69.8242 12.4512 -62.9883 12.4512 -53.6621 L 12.4512 -16.8457 C 12.4512 -7.37305 13.5254 -0.537109 18.6035 4.49219 C 23.6816 9.52148 30.5176 10.6934 39.9414 10.6934 L 76.9531 10.6934 C 86.377 10.6934 93.2617 9.52148 98.291 4.49219 C 103.32 -0.585938 104.443 -7.37305 104.443 -16.8457 L 104.443 -53.5645 C 104.443 -63.0371 103.32 -69.8242 98.291 -74.8535 Z M 93.2617 -54.8828 L 93.2617 -15.4785 C 93.2617 -10.3516 92.5781 -6.20117 90.1367 -3.71094 C 87.5977 -1.2207 83.3984 -0.488281 78.2715 -0.488281 L 38.623 -0.488281 C 33.4961 -0.488281 29.2969 -1.2207 26.7578 -3.71094 C 24.3164 -6.20117 23.6328 -10.3516 23.6328 -15.4785 L 23.6328 -54.834 C 23.6328 -60.0098 24.3164 -64.1602 26.7578 -66.6992 C 29.248 -69.1895 33.4961 -69.873 38.6719 -69.873 L 78.2715 -69.873 C 83.3984 -69.873 87.5977 -69.1406 90.1367 -66.6504 C 92.5781 -64.1602 93.2617 -60.0586 93.2617 -54.8828 Z"/>
  </g>
  <g id="Medium-M" transform="matrix(1 0 0 1 1688.55 1126)">
   <path d="M 97.6562 -74.5605 C 92.5781 -79.5898 85.6445 -80.6152 76.709 -80.6152 L 39.209 -80.6152 C 30.3711 -80.6152 23.4375 -79.5898 18.4082 -74.5605 C 13.3789 -69.5801 12.4512 -62.6953 12.4512 -53.8574 L 12.4512 -16.6504 C 12.4512 -7.66602 13.3789 -0.78125 18.4082 4.19922 C 23.4375 9.22852 30.3711 10.2051 39.3066 10.2051 L 76.709 10.2051 C 85.6445 10.2051 92.627 9.22852 97.6562 4.19922 C 102.637 -0.830078 103.564 -7.66602 103.564 -16.6504 L 103.564 -53.7109 C 103.564 -62.6953 102.637 -69.5801 97.6562 -74.5605 Z M 93.8477 -55.0781 L 93.8477 -15.2832 C 93.8477 -10.2051 93.2129 -5.61523 90.5273 -2.92969 C 87.793 -0.195312 83.1543 0.488281 78.0762 0.488281 L 37.9883 0.488281 C 32.9102 0.488281 28.2227 -0.244141 25.5371 -2.92969 C 22.8516 -5.61523 22.168 -10.2051 22.168 -15.2832 L 22.168 -54.9805 C 22.168 -60.1562 22.8516 -64.7949 25.5371 -67.4805 C 28.2227 -70.166 32.9102 -70.8496 38.0859 -70.8496 L 78.0762 -70.8496 C 83.1543 -70.8496 87.793 -70.166 90.5273 -67.4805 C 93.2129 -64.7461 93.8477 -60.1562 93.8477 -55.0781 Z"/>
  </g>
  <g id="Regular-M" transform="matrix(1 0 0 1 1392.37 1126)">
   <path d="M 96.7773 -74.2188 C 91.7969 -79.1992 84.7656 -79.9805 76.416 -79.9805 L 38.3789 -79.9805 C 30.1758 -79.9805 23.1445 -79.1992 18.1641 -74.2188 C 13.1836 -69.2383 12.4512 -62.2559 12.4512 -54.1016 L 12.4512 -16.4062 C 12.4512 -8.05664 13.1836 -1.12305 18.1641 3.85742 C 23.1445 8.83789 30.1758 9.61914 38.4766 9.61914 L 76.416 9.61914 C 84.7656 9.61914 91.7969 8.83789 96.7773 3.85742 C 101.758 -1.12305 102.49 -8.05664 102.49 -16.4062 L 102.49 -53.9551 C 102.49 -62.3047 101.758 -69.2871 96.7773 -74.2188 Z M 94.6289 -55.3223 L 94.6289 -15.0879 C 94.6289 -10.0098 93.9941 -4.83398 91.0156 -1.85547 C 88.0859 1.07422 82.8125 1.75781 77.7832 1.75781 L 37.1582 1.75781 C 32.1289 1.75781 26.8555 1.07422 23.877 -1.85547 C 20.9473 -4.83398 20.3125 -10.0098 20.3125 -15.0879 L 20.3125 -55.1758 C 20.3125 -60.3027 20.9473 -65.5762 23.877 -68.5059 C 26.8555 -71.4844 32.1777 -72.1191 37.3047 -72.1191 L 77.7832 -72.1191 C 82.8125 -72.1191 88.0859 -71.4355 91.0156 -68.5059 C 93.9941 -65.5273 94.6289 -60.3516 94.6289 -55.3223 Z"/>
  </g>
  <g id="Light-M" transform="matrix(1 0 0 1 1096.64 1126)">
   <path d="M 95.0684 -73.584 C 90.5273 -78.0762 84.2285 -79.0527 75.3906 -79.0527 L 37.2559 -79.0527 C 28.7598 -79.0527 22.4609 -78.0762 17.9199 -73.5352 C 13.4277 -69.043 12.4512 -62.793 12.4512 -54.248 L 12.4512 -16.3574 C 12.4512 -7.51953 13.3789 -1.26953 17.8711 3.22266 C 22.4609 7.76367 28.7109 8.74023 37.5488 8.74023 L 75.3906 8.74023 C 84.2285 8.74023 90.5762 7.76367 95.0684 3.22266 C 99.6094 -1.26953 100.537 -7.51953 100.537 -16.3574 L 100.537 -53.9551 C 100.537 -62.8418 99.6094 -69.0918 95.0684 -73.584 Z M 94.4824 -55.2734 L 94.4824 -15.0879 C 94.4824 -9.27734 93.6035 -4.19922 90.625 -1.2207 C 87.6465 1.80664 82.4707 2.68555 76.709 2.68555 L 36.2305 2.68555 C 30.5176 2.68555 25.3418 1.75781 22.3145 -1.2207 C 19.3359 -4.19922 18.5059 -9.27734 18.5059 -15.0879 L 18.5059 -54.9805 C 18.5059 -60.9863 19.3359 -66.1621 22.3145 -69.1406 C 25.293 -72.168 30.5664 -73.0469 36.5723 -73.0469 L 76.709 -73.0469 C 82.4707 -73.0469 87.6465 -72.1191 90.625 -69.1406 C 93.6035 -66.1133 94.4824 -61.0352 94.4824 -55.2734 Z"/>
  </g>
  <g id="Thin-M" transform="matrix(1 0 0 1 801.222 1126)">
   <path d="M 92.8223 -72.7051 C 88.8672 -76.6113 83.5938 -77.832 74.0234 -77.832 L 35.8398 -77.832 C 26.9043 -77.832 21.4844 -76.5625 17.5781 -72.6562 C 13.6719 -68.75 12.4512 -63.4277 12.4512 -54.4922 L 12.4512 -16.3574 C 12.4512 -6.73828 13.623 -1.46484 17.5293 2.39258 C 21.4844 6.29883 26.8066 7.56836 36.3281 7.56836 L 74.0234 7.56836 C 83.5938 7.56836 88.916 6.29883 92.8223 2.39258 C 96.7285 -1.51367 97.9492 -6.73828 97.9492 -16.3574 L 97.9492 -53.9551 C 97.9492 -63.5254 96.7285 -68.8477 92.8223 -72.7051 Z M 94.2871 -55.2246 L 94.2871 -15.0879 C 94.2871 -8.30078 93.0664 -3.36914 90.0879 -0.341797 C 87.0605 2.73438 82.0312 3.90625 75.293 3.90625 L 35.0586 3.90625 C 28.3691 3.90625 23.291 2.68555 20.2637 -0.341797 C 17.2363 -3.36914 16.0645 -8.30078 16.0645 -15.0879 L 16.0645 -54.6875 C 16.0645 -61.8652 17.2363 -66.9922 20.2148 -70.0195 C 23.2422 -73.0957 28.4668 -74.2188 35.5957 -74.2188 L 75.293 -74.2188 C 82.0312 -74.2188 87.0605 -72.998 90.0879 -69.9707 C 93.1152 -66.9434 94.2871 -62.0117 94.2871 -55.2246 Z"/>
  </g>
  <g id="Ultralight-M" transform="matrix(1 0 0 1 505.195 1126)">
   <path d="M 91.6992 -72.2656 C 88.0371 -75.8301 83.2031 -77.1973 73.3398 -77.1973 L 35.0586 -77.1973 C 25.9766 -77.1973 20.9961 -75.7812 17.4316 -72.168 C 13.8184 -68.6035 12.4512 -63.7695 12.4512 -54.5898 L 12.4512 -16.3086 C 12.4512 -6.39648 13.7695 -1.5625 17.3828 1.95312 C 20.9961 5.56641 25.8301 6.93359 35.6934 6.93359 L 73.3398 6.93359 C 83.2031 6.93359 88.0859 5.56641 91.6992 1.95312 C 95.2637 -1.61133 96.582 -6.39648 96.582 -16.3086 L 96.582 -53.9551 C 96.582 -63.916 95.2637 -68.7012 91.6992 -72.2656 Z M 94.1895 -55.2246 L 94.1895 -15.0879 C 94.1895 -7.8125 92.8223 -2.92969 89.8438 0.0976562 C 86.7676 3.22266 81.7871 4.54102 74.6094 4.54102 L 34.4727 4.54102 C 27.2461 4.54102 22.2656 3.17383 19.2383 0.0976562 C 16.1621 -2.92969 14.8438 -7.8125 14.8438 -15.0879 L 14.8438 -54.5898 C 14.8438 -62.3535 16.1621 -67.3828 19.1406 -70.459 C 22.2168 -73.584 27.3926 -74.8047 35.1074 -74.8047 L 74.6094 -74.8047 C 81.7871 -74.8047 86.7676 -73.4375 89.8438 -70.3613 C 92.8711 -67.334 94.1895 -62.4512 94.1895 -55.2246 Z"/>
  </g>
  <g id="Black-S" transform="matrix(1 0 0 1 2885.99 696)">
   <path d="M 79.541 -67.2852 C 75.4395 -71.3379 70.2637 -72.8516 61.1328 -72.8516 L 33.6914 -72.8516 C 24.5605 -72.8516 19.3359 -71.3379 15.2832 -67.2852 C 11.2305 -63.2324 9.76562 -58.1543 9.76562 -48.9258 L 9.76562 -21.4844 C 9.76562 -12.2559 11.2305 -7.12891 15.2832 -3.125 C 19.3848 0.927734 24.5605 2.44141 33.6914 2.44141 L 61.1328 2.44141 C 70.2637 2.44141 75.4883 0.927734 79.541 -3.125 C 83.5938 -7.17773 85.0586 -12.2559 85.0586 -21.4844 L 85.0586 -48.9258 C 85.0586 -58.1543 83.5938 -63.2812 79.541 -67.2852 Z M 70.8984 -50 L 70.8984 -20.4102 C 70.8984 -16.2109 70.3125 -14.7461 69.1406 -13.5254 C 67.9199 -12.3535 66.3574 -11.7188 62.207 -11.7188 L 32.6172 -11.7188 C 28.4668 -11.7188 26.9043 -12.3535 25.6836 -13.5254 C 24.5117 -14.7461 23.9258 -16.2109 23.9258 -20.4102 L 23.9258 -50 C 23.9258 -54.1992 24.5117 -55.6641 25.6836 -56.8848 C 26.9043 -58.0566 28.4668 -58.6914 32.6172 -58.6914 L 62.207 -58.6914 C 66.3574 -58.6914 67.9199 -58.0566 69.1406 -56.8848 C 70.3125 -55.6641 70.8984 -54.1992 70.8984 -50 Z"/>
  </g>
  <g id="Heavy-S" transform="matrix(1 0 0 1 2589.72 696)">
   <path d="M 78.8574 -66.9922 C 74.7559 -71.0938 69.4336 -72.3633 60.9375 -72.3633 L 32.959 -72.3633 C 24.5117 -72.3633 19.1406 -71.0938 15.0879 -66.9922 C 10.9863 -62.9395 9.76562 -57.666 9.76562 -49.1699 L 9.76562 -21.2402 C 9.76562 -12.6953 10.9863 -7.42188 15.0879 -3.41797 C 19.1895 0.683594 24.5117 1.95312 32.959 1.95312 L 60.9375 1.95312 C 69.4336 1.95312 74.8047 0.683594 78.8574 -3.41797 C 82.9102 -7.4707 84.1797 -12.6953 84.1797 -21.2402 L 84.1797 -49.1699 C 84.1797 -57.666 82.9102 -62.9883 78.8574 -66.9922 Z M 71.6797 -50.2441 L 71.6797 -20.166 C 71.6797 -16.1133 71.1426 -14.0137 69.7266 -12.5488 C 68.2129 -11.1328 66.0645 -10.5469 62.0117 -10.5469 L 31.8848 -10.5469 C 27.8809 -10.5469 25.6836 -11.1328 24.2188 -12.5488 C 22.8027 -14.0137 22.2656 -16.1133 22.2656 -20.166 L 22.2656 -50.2441 C 22.2656 -54.2969 22.8027 -56.3965 24.2188 -57.8613 C 25.6836 -59.2773 27.8809 -59.8633 31.8848 -59.8633 L 62.0117 -59.8633 C 66.0645 -59.8633 68.2129 -59.2773 69.7266 -57.8613 C 71.1426 -56.3965 71.6797 -54.2969 71.6797 -50.2441 Z"/>
  </g>
  <g id="Bold-S" transform="matrix(1 0 0 1 2293.52 696)">
   <path d="M 78.0762 -66.6992 C 73.9746 -70.8008 68.457 -71.8262 60.7422 -71.8262 L 32.1289 -71.8262 C 24.4629 -71.8262 18.8965 -70.8008 14.8438 -66.6992 C 10.7422 -62.5977 9.76562 -57.1777 9.76562 -49.4141 L 9.76562 -20.9961 C 9.76562 -13.2324 10.7422 -7.76367 14.8438 -3.71094 C 18.9453 0.390625 24.4629 1.41602 32.1777 1.41602 L 60.7422 1.41602 C 68.457 1.41602 74.0234 0.390625 78.0762 -3.71094 C 82.1777 -7.8125 83.1543 -13.2324 83.1543 -20.9961 L 83.1543 -49.4141 C 83.1543 -57.1777 82.1777 -62.6465 78.0762 -66.6992 Z M 72.5586 -50.4883 L 72.5586 -19.9219 C 72.5586 -16.0156 72.0703 -13.2324 70.3125 -11.4746 C 68.5547 -9.7168 65.6738 -9.22852 61.8164 -9.22852 L 31.1035 -9.22852 C 27.1973 -9.22852 24.3652 -9.7168 22.6074 -11.4746 C 20.8496 -13.2324 20.3613 -16.0156 20.3613 -19.9219 L 20.3613 -50.4883 C 20.3613 -54.3945 20.8496 -57.1777 22.6074 -58.9355 C 24.3652 -60.6934 27.1973 -61.1816 31.1035 -61.1816 L 61.8164 -61.1816 C 65.6738 -61.1816 68.5547 -60.6934 70.3125 -58.9355 C 72.0703 -57.1777 72.5586 -54.3945 72.5586 -50.4883 Z"/>
  </g>
  <g id="Semibold-S" transform="matrix(1 0 0 1 1997.15 696)">
   <path d="M 77.5879 -66.5039 C 73.4375 -70.6055 67.8223 -71.4355 60.6445 -71.4355 L 31.5918 -71.4355 C 24.4141 -71.4355 18.75 -70.6055 14.6484 -66.5039 C 10.5469 -62.3535 9.76562 -56.7871 9.76562 -49.6094 L 9.76562 -20.8008 C 9.76562 -13.5742 10.5469 -8.00781 14.6484 -3.90625 C 18.7988 0.195312 24.4141 1.02539 31.5918 1.02539 L 60.6445 1.02539 C 67.8223 1.02539 73.4375 0.195312 77.5879 -3.90625 C 81.6895 -8.00781 82.4707 -13.5742 82.4707 -20.8008 L 82.4707 -49.6094 C 82.4707 -56.8359 81.6895 -62.4023 77.5879 -66.5039 Z M 73.1445 -50.6836 L 73.1445 -19.7266 C 73.1445 -15.9668 72.7051 -12.6953 70.752 -10.7422 C 68.7988 -8.78906 65.4785 -8.30078 61.7188 -8.30078 L 30.5176 -8.30078 C 26.7578 -8.30078 23.3887 -8.78906 21.4355 -10.7422 C 19.5312 -12.6953 19.0918 -15.9668 19.0918 -19.7266 L 19.0918 -50.6348 C 19.0918 -54.4434 19.5312 -57.7148 21.4355 -59.668 C 23.3887 -61.6211 26.7578 -62.1094 30.5664 -62.1094 L 61.7188 -62.1094 C 65.4785 -62.1094 68.7988 -61.6211 70.752 -59.668 C 72.7051 -57.7148 73.1445 -54.4434 73.1445 -50.6836 Z"/>
  </g>
  <g id="Medium-S" transform="matrix(1 0 0 1 1700.71 696)">
   <path d="M 77.1484 -66.3086 C 73.0469 -70.4102 67.334 -71.1426 60.498 -71.1426 L 31.1523 -71.1426 C 24.3652 -71.1426 18.6523 -70.4102 14.5508 -66.3086 C 10.4004 -62.207 9.76562 -56.543 9.76562 -49.7559 L 9.76562 -20.7031 C 9.76562 -13.8672 10.4004 -8.20312 14.5508 -4.10156 C 18.6523 0.0488281 24.3652 0.732422 31.1523 0.732422 L 60.498 0.732422 C 67.334 0.732422 73.0469 0.0488281 77.1484 -4.10156 C 81.2988 -8.20312 81.9336 -13.8672 81.9336 -20.7031 L 81.9336 -49.707 C 81.9336 -56.543 81.2988 -62.207 77.1484 -66.3086 Z M 73.584 -50.7812 L 73.584 -19.6289 C 73.584 -15.918 73.1934 -12.2559 71.0938 -10.1562 C 68.9941 -8.05664 65.2832 -7.61719 61.5723 -7.61719 L 30.0781 -7.61719 C 26.416 -7.61719 22.7051 -8.05664 20.6055 -10.1562 C 18.5059 -12.2559 18.0664 -15.918 18.0664 -19.6289 L 18.0664 -50.7812 C 18.0664 -54.4922 18.5059 -58.1543 20.6055 -60.2539 C 22.7051 -62.3535 26.416 -62.793 30.127 -62.793 L 61.5723 -62.793 C 65.2832 -62.793 68.9941 -62.3535 71.0938 -60.2539 C 73.1934 -58.1543 73.584 -54.4922 73.584 -50.7812 Z"/>
  </g>
  <g id="Regular-S" transform="matrix(1 0 0 1 1404.34 696)">
   <path d="M 76.6602 -66.1133 C 72.5098 -70.2148 66.6504 -70.752 60.4004 -70.752 L 30.6152 -70.752 C 24.3652 -70.752 18.5059 -70.2148 14.3555 -66.1133 C 10.2539 -61.9629 9.76562 -56.2012 9.76562 -49.9512 L 9.76562 -20.5078 C 9.76562 -14.209 10.2539 -8.39844 14.3555 -4.29688 C 18.5059 -0.146484 24.3164 0.341797 30.6152 0.341797 L 60.4004 0.341797 C 66.6504 0.341797 72.5098 -0.146484 76.6602 -4.29688 C 80.7617 -8.44727 81.25 -14.209 81.25 -20.5078 L 81.25 -49.9023 C 81.25 -56.2012 80.7617 -61.9629 76.6602 -66.1133 Z M 74.2188 -50.9766 L 74.2188 -19.4336 C 74.2188 -15.8691 73.8281 -11.7188 71.5332 -9.42383 C 69.2383 -7.12891 65.0391 -6.68945 61.4746 -6.68945 L 29.541 -6.68945 C 25.9766 -6.68945 21.7773 -7.12891 19.4824 -9.42383 C 17.1875 -11.7188 16.7969 -15.8691 16.7969 -19.4336 L 16.7969 -50.9277 C 16.7969 -54.541 17.1875 -58.6914 19.4824 -60.9863 C 21.7773 -63.2812 25.9766 -63.7207 29.5898 -63.7207 L 61.4746 -63.7207 C 65.0391 -63.7207 69.2383 -63.2812 71.5332 -60.9863 C 73.8281 -58.6914 74.2188 -54.541 74.2188 -50.9766 Z"/>
  </g>
  <g id="Light-S" transform="matrix(1 0 0 1 1108.5 696)">
   <path d="M 75.1465 -65.5273 C 71.4355 -69.2383 66.2109 -69.9219 59.4727 -69.9219 L 29.6387 -69.9219 C 23.0957 -69.9219 17.8711 -69.2383 14.1602 -65.5273 C 10.4492 -61.7676 9.76562 -56.6406 9.76562 -50.0977 L 9.76562 -20.459 C 9.76562 -13.7207 10.4004 -8.54492 14.1113 -4.83398 C 17.8711 -1.12305 23.0469 -0.439453 29.7852 -0.439453 L 59.4727 -0.439453 C 66.2109 -0.439453 71.4355 -1.12305 75.1465 -4.83398 C 78.8574 -8.59375 79.4922 -13.7207 79.4922 -20.459 L 79.4922 -49.9023 C 79.4922 -56.6406 78.8574 -61.8164 75.1465 -65.5273 Z M 74.0723 -50.9277 L 74.0723 -19.4336 C 74.0723 -15.1855 73.4863 -11.1816 71.1914 -8.83789 C 68.8477 -6.49414 64.7461 -5.85938 60.498 -5.85938 L 28.7598 -5.85938 C 24.5117 -5.85938 20.459 -6.49414 18.1152 -8.83789 C 15.7715 -11.1816 15.1855 -15.1855 15.1855 -19.4336 L 15.1855 -50.7812 C 15.1855 -55.127 15.7715 -59.2285 18.0664 -61.5723 C 20.4102 -63.916 24.5605 -64.502 28.9062 -64.502 L 60.498 -64.502 C 64.7461 -64.502 68.8477 -63.8672 71.1914 -61.5234 C 73.4863 -59.2285 74.0723 -55.1758 74.0723 -50.9277 Z"/>
  </g>
  <g id="Thin-S" transform="matrix(1 0 0 1 812.916 696)">
   <path d="M 73.1934 -64.7461 C 69.9707 -67.9199 65.625 -68.8477 58.3008 -68.8477 L 28.3691 -68.8477 C 21.4355 -68.8477 17.041 -67.8711 13.8672 -64.6973 C 10.6934 -61.5234 9.76562 -57.1777 9.76562 -50.2441 L 9.76562 -20.459 C 9.76562 -13.0859 10.6445 -8.74023 13.8184 -5.56641 C 17.041 -2.39258 21.3867 -1.46484 28.7109 -1.46484 L 58.3008 -1.46484 C 65.625 -1.46484 70.0195 -2.39258 73.1934 -5.56641 C 76.3672 -8.74023 77.2461 -13.0859 77.2461 -20.459 L 77.2461 -49.9023 C 77.2461 -57.2754 76.3672 -61.6211 73.1934 -64.7461 Z M 73.9258 -50.9277 L 73.9258 -19.4336 C 73.9258 -14.3066 73.0469 -10.4492 70.7031 -8.05664 C 68.3594 -5.66406 64.3555 -4.78516 59.2773 -4.78516 L 27.7344 -4.78516 C 22.6562 -4.78516 18.6523 -5.71289 16.3086 -8.05664 C 13.916 -10.4492 13.0859 -14.3066 13.0859 -19.4336 L 13.0859 -50.5371 C 13.0859 -55.957 13.916 -59.9609 16.2598 -62.3047 C 18.6035 -64.6973 22.7051 -65.5273 28.0762 -65.5273 L 59.2773 -65.5273 C 64.3555 -65.5273 68.3594 -64.6484 70.7031 -62.2559 C 73.0957 -59.9121 73.9258 -56.0059 73.9258 -50.9277 Z"/>
  </g>
  <g id="Ultralight-S" transform="matrix(1 0 0 1 516.791 696)">
   <path d="M 72.168 -64.3555 C 69.2383 -67.2363 65.2832 -68.3105 57.666 -68.3105 L 27.6855 -68.3105 C 20.6055 -68.3105 16.6016 -67.1875 13.7207 -64.3066 C 10.791 -61.4258 9.76562 -57.5195 9.76562 -50.3906 L 9.76562 -20.4102 C 9.76562 -12.7441 10.7422 -8.83789 13.6719 -5.95703 C 16.6016 -3.07617 20.5078 -2.00195 28.1738 -2.00195 L 57.666 -2.00195 C 65.2832 -2.00195 69.2383 -3.07617 72.168 -5.95703 C 75.0488 -8.88672 76.0742 -12.7441 76.0742 -20.4102 L 76.0742 -49.9023 C 76.0742 -57.6172 75.0488 -61.5234 72.168 -64.3555 Z M 73.8281 -50.8789 L 73.8281 -19.4336 C 73.8281 -13.8672 72.8027 -10.0586 70.459 -7.66602 C 68.0664 -5.22461 64.1602 -4.24805 58.6426 -4.24805 L 27.1973 -4.24805 C 21.6797 -4.24805 17.7246 -5.27344 15.332 -7.66602 C 12.9395 -10.0586 11.9629 -13.8672 11.9629 -19.4336 L 11.9629 -50.4395 C 11.9629 -56.3477 12.9395 -60.3027 15.2832 -62.6953 C 17.6758 -65.1367 21.7285 -66.0645 27.6367 -66.0645 L 58.6426 -66.0645 C 64.1602 -66.0645 68.0664 -65.0391 70.459 -62.6465 C 72.8516 -60.2539 73.8281 -56.4453 73.8281 -50.8789 Z"/>
  </g>
 </g>
</svg>
