<svg xmlns="http://www.w3.org/2000/svg" viewBox="0 0 89.89 89.89"><defs><style>.a{fill:#fff;}</style></defs><path class="a" d="M58.35,40.92H80.57c6.2,0,9.32-3.13,9.32-9.57V9.52C89.89,3.08,86.77,0,80.57,0H58.35C52.1,0,49,3.08,49,9.52V31.35C49,37.79,52.1,40.92,58.35,40.92Zm-49,0H31.59c6.2,0,9.33-3.13,9.33-9.57V9.52C40.92,3.08,37.79,0,31.59,0H9.33C3.12,0,0,3.08,0,9.52V31.35C0,37.79,3.12,40.92,9.33,40.92Zm0,49H31.59c6.2,0,9.33-3.07,9.33-9.52V58.5c0-6.4-3.13-9.53-9.33-9.53H9.33C3.12,49,0,52.1,0,58.5V80.37C0,86.82,3.12,89.89,9.33,89.89Zm49,0H80.57c6.2,0,9.32-3.07,9.32-9.52V58.5c0-6.4-3.12-9.53-9.32-9.53H58.35C52.1,49,49,52.1,49,58.5V80.37C49,86.82,52.1,89.89,58.35,89.89Z"/></svg>