<svg xmlns="http://www.w3.org/2000/svg" viewBox="0 0 88.09 87.79"><defs><style>.a{fill:#fff;}</style></defs><path class="a" d="M82.62,5.47C78.08,1,71.78,0,62.94,0H24.8C16.31,0,10,1,5.47,5.52S0,16.26,0,24.8V62.7c0,8.83.93,15.08,5.42,19.58s10.84,5.51,19.68,5.51H62.94c8.84,0,15.19-1,19.68-5.51s5.47-10.75,5.47-19.58V25.1C88.09,16.21,87.16,10,82.62,5.47ZM82,23.78V64c0,5.82-.88,10.89-3.86,13.87S70,81.74,64.26,81.74H23.78c-5.71,0-10.89-.93-13.92-3.91S6.05,69.78,6.05,64V24.07c0-6,.83-11.18,3.81-14.16S18.12,6,24.12,6H64.26C70,6,75.2,6.93,78.17,9.91S82,18,82,23.78Z"/></svg>