<svg xmlns="http://www.w3.org/2000/svg" viewBox="0 0 90.04 89.6"><defs><style>.a{fill:#f7f8f8;}</style></defs><path class="a" d="M84.33,5.76C79.35.78,72.31,0,64,0h-38C17.72,0,10.69.78,5.71,5.76S0,17.72,0,25.88V63.57c0,8.35.73,15.29,5.71,20.27S17.72,89.6,26,89.6H64c8.35,0,15.39-.78,20.37-5.76S90,71.92,90,63.57V26C90,17.68,89.31,10.69,84.33,5.76Zm-2.15,18.9V64.89c0,5.08-.64,10.26-3.62,13.24s-8.2,3.61-13.23,3.61H24.71c-5,0-10.31-.69-13.28-3.61S7.86,70,7.86,64.89V24.8c0-5.12.64-10.4,3.57-13.33s8.3-3.61,13.42-3.61H65.33c5,0,10.3.68,13.23,3.61S82.18,19.63,82.18,24.66Z"/></svg>