<svg xmlns="http://www.w3.org/2000/svg" viewBox="0 0 140.33 105.71"><defs><style>.a{fill:#fff;}</style></defs><path class="a" d="M12.06,24.17A12.17,12.17,0,0,0,24.17,12.06,12.09,12.09,0,0,0,0,12.06,12.16,12.16,0,0,0,12.06,24.17Zm35.16-2.83H131.1a9.2,9.2,0,0,0,9.23-9.28,9.16,9.16,0,0,0-9.23-9.23H47.22A9.16,9.16,0,0,0,38,12.06,9.2,9.2,0,0,0,47.22,21.34ZM12.06,64.94a12.09,12.09,0,1,0,0-24.17,12.09,12.09,0,0,0,0,24.17Zm35.16-2.83H131.1a9.26,9.26,0,0,0,0-18.51H47.22a9.26,9.26,0,0,0,0,18.51Zm-35.16,43.6a12.09,12.09,0,1,0,0-24.17,12.09,12.09,0,0,0,0,24.17Zm35.16-2.83H131.1a9.26,9.26,0,0,0,0-18.51H47.22a9.26,9.26,0,0,0,0,18.51Z"/></svg>