<?xml version="1.0" encoding="UTF-8"?>
<!--Generator: Apple Native CoreSVG 123-->
<!DOCTYPE svg
PUBLIC "-//W3C//DTD SVG 1.1//EN"
       "http://www.w3.org/Graphics/SVG/1.1/DTD/svg11.dtd">
<svg version="1.1" xmlns="http://www.w3.org/2000/svg" xmlns:xlink="http://www.w3.org/1999/xlink" width="3300" height="2200">
 <!--glyph: "uni1001BA.medium", point size: 100.000000, font version: "Version 15.0d7e11", template writer version: "5"-->
 <g id="Notes">
  <rect height="2200" id="artboard" style="fill:white;opacity:1" width="3300" x="0" y="0"/>
  <line id="" style="fill:none;stroke:black;opacity:1;stroke-width:0.5;" x1="263" x2="3036" y1="292" y2="292"/>
  <text style="stroke:none;fill:black;font-family:-apple-system,&quot;SF Pro Display&quot;,&quot;SF Pro Text&quot;,Helvetica,sans-serif;font-weight:bold;" transform="matrix(1 0 0 1 263 322)">Weight/Scale Variations</text>
  <text style="stroke:none;fill:black;font-family:-apple-system,&quot;SF Pro Display&quot;,&quot;SF Pro Text&quot;,Helvetica,sans-serif;text-anchor:middle;" transform="matrix(1 0 0 1 559.711 322)">Ultralight</text>
  <text style="stroke:none;fill:black;font-family:-apple-system,&quot;SF Pro Display&quot;,&quot;SF Pro Text&quot;,Helvetica,sans-serif;text-anchor:middle;" transform="matrix(1 0 0 1 856.422 322)">Thin</text>
  <text style="stroke:none;fill:black;font-family:-apple-system,&quot;SF Pro Display&quot;,&quot;SF Pro Text&quot;,Helvetica,sans-serif;text-anchor:middle;" transform="matrix(1 0 0 1 1153.13 322)">Light</text>
  <text style="stroke:none;fill:black;font-family:-apple-system,&quot;SF Pro Display&quot;,&quot;SF Pro Text&quot;,Helvetica,sans-serif;text-anchor:middle;" transform="matrix(1 0 0 1 1449.84 322)">Regular</text>
  <text style="stroke:none;fill:black;font-family:-apple-system,&quot;SF Pro Display&quot;,&quot;SF Pro Text&quot;,Helvetica,sans-serif;text-anchor:middle;" transform="matrix(1 0 0 1 1746.56 322)">Medium</text>
  <text style="stroke:none;fill:black;font-family:-apple-system,&quot;SF Pro Display&quot;,&quot;SF Pro Text&quot;,Helvetica,sans-serif;text-anchor:middle;" transform="matrix(1 0 0 1 2043.27 322)">Semibold</text>
  <text style="stroke:none;fill:black;font-family:-apple-system,&quot;SF Pro Display&quot;,&quot;SF Pro Text&quot;,Helvetica,sans-serif;text-anchor:middle;" transform="matrix(1 0 0 1 2339.98 322)">Bold</text>
  <text style="stroke:none;fill:black;font-family:-apple-system,&quot;SF Pro Display&quot;,&quot;SF Pro Text&quot;,Helvetica,sans-serif;text-anchor:middle;" transform="matrix(1 0 0 1 2636.69 322)">Heavy</text>
  <text style="stroke:none;fill:black;font-family:-apple-system,&quot;SF Pro Display&quot;,&quot;SF Pro Text&quot;,Helvetica,sans-serif;text-anchor:middle;" transform="matrix(1 0 0 1 2933.4 322)">Black</text>
  <line id="" style="fill:none;stroke:black;opacity:1;stroke-width:0.5;" x1="263" x2="3036" y1="1903" y2="1903"/>
  <g id="" transform="matrix(1 0 0 1 263 1933)">
   <path d="M 9.24805 0.830078 C 13.5547 0.830078 17.1387 -2.74414 17.1387 -7.05078 C 17.1387 -11.3574 13.5449 -14.9316 9.23828 -14.9316 C 4.94141 -14.9316 1.36719 -11.3574 1.36719 -7.05078 C 1.36719 -2.74414 4.95117 0.830078 9.24805 0.830078 Z M 9.24805 -0.654297 C 5.70312 -0.654297 2.87109 -3.49609 2.87109 -7.05078 C 2.87109 -10.6055 5.69336 -13.4473 9.23828 -13.4473 C 12.793 -13.4473 15.6348 -10.6055 15.6445 -7.05078 C 15.6543 -3.49609 12.8027 -0.654297 9.24805 -0.654297 Z M 9.22852 -3.42773 C 9.69727 -3.42773 9.9707 -3.74023 9.9707 -4.25781 L 9.9707 -6.31836 L 12.1973 -6.31836 C 12.6953 -6.31836 13.0371 -6.57227 13.0371 -7.04102 C 13.0371 -7.51953 12.7148 -7.7832 12.1973 -7.7832 L 9.9707 -7.7832 L 9.9707 -10.0098 C 9.9707 -10.5273 9.69727 -10.8496 9.22852 -10.8496 C 8.75977 -10.8496 8.50586 -10.5078 8.50586 -10.0098 L 8.50586 -7.7832 L 6.29883 -7.7832 C 5.78125 -7.7832 5.44922 -7.51953 5.44922 -7.04102 C 5.44922 -6.57227 5.80078 -6.31836 6.29883 -6.31836 L 8.50586 -6.31836 L 8.50586 -4.25781 C 8.50586 -3.75977 8.75977 -3.42773 9.22852 -3.42773 Z"/>
  </g>
  <g id="" transform="matrix(1 0 0 1 281.506 1933)">
   <path d="M 11.709 2.91016 C 17.1582 2.91016 21.6699 -1.60156 21.6699 -7.05078 C 21.6699 -12.4902 17.1484 -17.0117 11.6992 -17.0117 C 6.25977 -17.0117 1.74805 -12.4902 1.74805 -7.05078 C 1.74805 -1.60156 6.26953 2.91016 11.709 2.91016 Z M 11.709 1.25 C 7.09961 1.25 3.41797 -2.44141 3.41797 -7.05078 C 3.41797 -11.6504 7.08984 -15.3516 11.6992 -15.3516 C 16.3086 -15.3516 20 -11.6504 20.0098 -7.05078 C 20.0195 -2.44141 16.3184 1.25 11.709 1.25 Z M 11.6895 -2.41211 C 12.207 -2.41211 12.5195 -2.77344 12.5195 -3.33984 L 12.5195 -6.23047 L 15.5762 -6.23047 C 16.123 -6.23047 16.5039 -6.51367 16.5039 -7.03125 C 16.5039 -7.55859 16.1426 -7.86133 15.5762 -7.86133 L 12.5195 -7.86133 L 12.5195 -10.9277 C 12.5195 -11.5039 12.207 -11.8555 11.6895 -11.8555 C 11.1719 -11.8555 10.8789 -11.4844 10.8789 -10.9277 L 10.8789 -7.86133 L 7.83203 -7.86133 C 7.26562 -7.86133 6.89453 -7.55859 6.89453 -7.03125 C 6.89453 -6.51367 7.28516 -6.23047 7.83203 -6.23047 L 10.8789 -6.23047 L 10.8789 -3.33984 C 10.8789 -2.79297 11.1719 -2.41211 11.6895 -2.41211 Z"/>
  </g>
  <g id="" transform="matrix(1 0 0 1 304.924 1933)">
   <path d="M 14.9707 5.67383 C 21.9336 5.67383 27.6953 -0.078125 27.6953 -7.04102 C 27.6953 -14.0039 21.9238 -19.7559 14.9609 -19.7559 C 8.00781 -19.7559 2.25586 -14.0039 2.25586 -7.04102 C 2.25586 -0.078125 8.01758 5.67383 14.9707 5.67383 Z M 14.9707 3.85742 C 8.93555 3.85742 4.08203 -1.00586 4.08203 -7.04102 C 4.08203 -13.0762 8.92578 -17.9395 14.9609 -17.9395 C 21.0059 -17.9395 25.8594 -13.0762 25.8691 -7.04102 C 25.8789 -1.00586 21.0156 3.85742 14.9707 3.85742 Z M 14.9512 -1.06445 C 15.5176 -1.06445 15.8691 -1.45508 15.8691 -2.06055 L 15.8691 -6.13281 L 20.1074 -6.13281 C 20.6934 -6.13281 21.1133 -6.46484 21.1133 -7.02148 C 21.1133 -7.59766 20.7227 -7.93945 20.1074 -7.93945 L 15.8691 -7.93945 L 15.8691 -12.1875 C 15.8691 -12.8027 15.5176 -13.1934 14.9512 -13.1934 C 14.3848 -13.1934 14.0625 -12.7832 14.0625 -12.1875 L 14.0625 -7.93945 L 9.83398 -7.93945 C 9.21875 -7.93945 8.80859 -7.59766 8.80859 -7.02148 C 8.80859 -6.46484 9.23828 -6.13281 9.83398 -6.13281 L 14.0625 -6.13281 L 14.0625 -2.06055 C 14.0625 -1.47461 14.3848 -1.06445 14.9512 -1.06445 Z"/>
  </g>
  <text style="stroke:none;fill:black;font-family:-apple-system,&quot;SF Pro Display&quot;,&quot;SF Pro Text&quot;,Helvetica,sans-serif;font-weight:bold;" transform="matrix(1 0 0 1 263 1953)">Design Variations</text>
  <text style="stroke:none;fill:black;font-family:-apple-system,&quot;SF Pro Display&quot;,&quot;SF Pro Text&quot;,Helvetica,sans-serif;" transform="matrix(1 0 0 1 263 1971)">Symbols are supported in up to nine weights and three scales.</text>
  <text style="stroke:none;fill:black;font-family:-apple-system,&quot;SF Pro Display&quot;,&quot;SF Pro Text&quot;,Helvetica,sans-serif;" transform="matrix(1 0 0 1 263 1989)">For optimal layout with text and other symbols, vertically align</text>
  <text style="stroke:none;fill:black;font-family:-apple-system,&quot;SF Pro Display&quot;,&quot;SF Pro Text&quot;,Helvetica,sans-serif;" transform="matrix(1 0 0 1 263 2007)">symbols with the adjacent text.</text>
  <rect height="14" id="" style="fill:#00AEEF;stroke:none;opacity:0.4;" width="3" x="776" y="1919"/>
  <g id="" transform="matrix(1 0 0 1 779 1933)">
   <path d="M 10.5273 0 L 12.373 0 L 7.17773 -14.0918 L 5.43945 -14.0918 L 0.244141 0 L 2.08984 0 L 3.50586 -4.0332 L 9.11133 -4.0332 Z M 6.2793 -11.9531 L 6.33789 -11.9531 L 8.59375 -5.52734 L 4.02344 -5.52734 Z"/>
  </g>
  <rect height="14" id="" style="fill:#00AEEF;stroke:none;opacity:0.4;" width="3" x="791.617" y="1919"/>
  <text style="stroke:none;fill:black;font-family:-apple-system,&quot;SF Pro Display&quot;,&quot;SF Pro Text&quot;,Helvetica,sans-serif;font-weight:bold;" transform="matrix(1 0 0 1 776 1953)">Margins</text>
  <text style="stroke:none;fill:black;font-family:-apple-system,&quot;SF Pro Display&quot;,&quot;SF Pro Text&quot;,Helvetica,sans-serif;" transform="matrix(1 0 0 1 776 1971)">Leading and trailing margins on the left and right side of each symbol</text>
  <text style="stroke:none;fill:black;font-family:-apple-system,&quot;SF Pro Display&quot;,&quot;SF Pro Text&quot;,Helvetica,sans-serif;" transform="matrix(1 0 0 1 776 1989)">can be adjusted by modifying the width of the blue rectangles.</text>
  <text style="stroke:none;fill:black;font-family:-apple-system,&quot;SF Pro Display&quot;,&quot;SF Pro Text&quot;,Helvetica,sans-serif;" transform="matrix(1 0 0 1 776 2007)">Modifications are automatically applied proportionally to all</text>
  <text style="stroke:none;fill:black;font-family:-apple-system,&quot;SF Pro Display&quot;,&quot;SF Pro Text&quot;,Helvetica,sans-serif;" transform="matrix(1 0 0 1 776 2025)">scales and weights.</text>
  <g id="" transform="matrix(1 0 0 1 1289 1933)">
   <path d="M 2.83203 3.11523 L 4.375 4.6582 C 5.22461 5.48828 6.19141 5.41992 7.06055 4.46289 L 17.2754 -6.66016 C 17.7051 -6.36719 18.0957 -6.37695 18.5645 -6.47461 L 19.6094 -6.68945 L 20.3027 -5.99609 L 20.2539 -5.47852 C 20.1855 -4.95117 20.3516 -4.53125 20.8496 -4.0332 L 21.6602 -3.22266 C 22.168 -2.71484 22.8223 -2.68555 23.3008 -3.16406 L 26.5527 -6.41602 C 27.0312 -6.89453 27.0117 -7.54883 26.5039 -8.05664 L 25.6836 -8.87695 C 25.1855 -9.375 24.7754 -9.55078 24.2383 -9.47266 L 23.7109 -9.41406 L 23.0566 -10.0781 L 23.3398 -11.2207 C 23.4863 -11.7871 23.3398 -12.2559 22.7148 -12.8613 L 20.3027 -15.2539 C 16.7578 -18.7793 12.2266 -18.6719 9.11133 -15.5371 C 8.69141 -15.1074 8.64258 -14.5215 8.91602 -14.0918 C 9.15039 -13.7207 9.62891 -13.4961 10.2734 -13.6621 C 11.7871 -14.043 13.3008 -13.9258 14.7852 -12.9199 L 14.1602 -11.3379 C 13.9258 -10.752 13.9453 -10.2734 14.1797 -9.83398 L 3.01758 0.439453 C 2.08008 1.30859 1.97266 2.25586 2.83203 3.11523 Z M 10.6738 -15.1465 C 13.3398 -17.1387 16.6504 -16.8262 19.0527 -14.4141 L 21.6797 -11.8066 C 21.9141 -11.5723 21.9434 -11.3867 21.8848 -11.0938 L 21.5039 -9.53125 L 23.0762 -7.95898 L 24.043 -8.04688 C 24.3262 -8.07617 24.4141 -8.05664 24.6387 -7.83203 L 25.2637 -7.20703 L 22.5098 -4.46289 L 21.8848 -5.07812 C 21.6602 -5.30273 21.6406 -5.40039 21.6699 -5.68359 L 21.7578 -6.64062 L 20.1953 -8.20312 L 18.5742 -7.89062 C 18.291 -7.83203 18.1445 -7.83203 17.9102 -8.07617 L 15.7324 -10.2539 C 15.5078 -10.4883 15.4785 -10.625 15.6055 -10.9473 L 16.5527 -13.2227 C 14.9512 -14.7559 12.8418 -15.6055 10.8008 -14.9512 C 10.7129 -14.9219 10.6445 -14.9414 10.6152 -14.9805 C 10.5859 -15.0293 10.5859 -15.0781 10.6738 -15.1465 Z M 4.10156 2.41211 C 3.61328 1.91406 3.78906 1.61133 4.12109 1.30859 L 15.0781 -8.80859 L 16.3086 -7.57812 L 6.15234 3.34961 C 5.84961 3.68164 5.46875 3.7793 5.06836 3.37891 Z"/>
  </g>
  <text style="stroke:none;fill:black;font-family:-apple-system,&quot;SF Pro Display&quot;,&quot;SF Pro Text&quot;,Helvetica,sans-serif;font-weight:bold;" transform="matrix(1 0 0 1 1289 1953)">Exporting</text>
  <text style="stroke:none;fill:black;font-family:-apple-system,&quot;SF Pro Display&quot;,&quot;SF Pro Text&quot;,Helvetica,sans-serif;" transform="matrix(1 0 0 1 1289 1971)">Symbols should be outlined when exporting to ensure the</text>
  <text style="stroke:none;fill:black;font-family:-apple-system,&quot;SF Pro Display&quot;,&quot;SF Pro Text&quot;,Helvetica,sans-serif;" transform="matrix(1 0 0 1 1289 1989)">design is preserved when submitting to Xcode.</text>
  <text id="template-version" style="stroke:none;fill:black;font-family:-apple-system,&quot;SF Pro Display&quot;,&quot;SF Pro Text&quot;,Helvetica,sans-serif;text-anchor:end;" transform="matrix(1 0 0 1 3036 1933)">Template v.1.0</text>
  <text style="stroke:none;fill:black;font-family:-apple-system,&quot;SF Pro Display&quot;,&quot;SF Pro Text&quot;,Helvetica,sans-serif;text-anchor:end;" transform="matrix(1 0 0 1 3036 1951)">Generated from moon.fill</text>
  <text style="stroke:none;fill:black;font-family:-apple-system,&quot;SF Pro Display&quot;,&quot;SF Pro Text&quot;,Helvetica,sans-serif;text-anchor:end;" transform="matrix(1 0 0 1 3036 1969)">Typeset at 100 points</text>
  <text style="stroke:none;fill:black;font-family:-apple-system,&quot;SF Pro Display&quot;,&quot;SF Pro Text&quot;,Helvetica,sans-serif;" transform="matrix(1 0 0 1 263 726)">Small</text>
  <text style="stroke:none;fill:black;font-family:-apple-system,&quot;SF Pro Display&quot;,&quot;SF Pro Text&quot;,Helvetica,sans-serif;" transform="matrix(1 0 0 1 263 1156)">Medium</text>
  <text style="stroke:none;fill:black;font-family:-apple-system,&quot;SF Pro Display&quot;,&quot;SF Pro Text&quot;,Helvetica,sans-serif;" transform="matrix(1 0 0 1 263 1586)">Large</text>
 </g>
 <g id="Guides">
  <g id="H-reference" style="fill:#27AAE1;stroke:none;" transform="matrix(1 0 0 1 339 696)">
   <path d="M 54.9316 0 L 57.666 0 L 30.5664 -70.459 L 28.0762 -70.459 L 0.976562 0 L 3.66211 0 L 12.9395 -24.4629 L 45.7031 -24.4629 Z M 29.1992 -67.0898 L 29.4434 -67.0898 L 44.8242 -26.709 L 13.8184 -26.709 Z"/>
  </g>
  <line id="Baseline-S" style="fill:none;stroke:#27AAE1;opacity:1;stroke-width:0.577;" x1="263" x2="3036" y1="696" y2="696"/>
  <line id="Capline-S" style="fill:none;stroke:#27AAE1;opacity:1;stroke-width:0.577;" x1="263" x2="3036" y1="625.541" y2="625.541"/>
  <g id="H-reference" style="fill:#27AAE1;stroke:none;" transform="matrix(1 0 0 1 339 1126)">
   <path d="M 54.9316 0 L 57.666 0 L 30.5664 -70.459 L 28.0762 -70.459 L 0.976562 0 L 3.66211 0 L 12.9395 -24.4629 L 45.7031 -24.4629 Z M 29.1992 -67.0898 L 29.4434 -67.0898 L 44.8242 -26.709 L 13.8184 -26.709 Z"/>
  </g>
  <line id="Baseline-M" style="fill:none;stroke:#27AAE1;opacity:1;stroke-width:0.577;" x1="263" x2="3036" y1="1126" y2="1126"/>
  <line id="Capline-M" style="fill:none;stroke:#27AAE1;opacity:1;stroke-width:0.577;" x1="263" x2="3036" y1="1055.54" y2="1055.54"/>
  <g id="H-reference" style="fill:#27AAE1;stroke:none;" transform="matrix(1 0 0 1 339 1556)">
   <path d="M 54.9316 0 L 57.666 0 L 30.5664 -70.459 L 28.0762 -70.459 L 0.976562 0 L 3.66211 0 L 12.9395 -24.4629 L 45.7031 -24.4629 Z M 29.1992 -67.0898 L 29.4434 -67.0898 L 44.8242 -26.709 L 13.8184 -26.709 Z"/>
  </g>
  <line id="Baseline-L" style="fill:none;stroke:#27AAE1;opacity:1;stroke-width:0.577;" x1="263" x2="3036" y1="1556" y2="1556"/>
  <line id="Capline-L" style="fill:none;stroke:#27AAE1;opacity:1;stroke-width:0.577;" x1="263" x2="3036" y1="1485.54" y2="1485.54"/>
  <rect height="119.336" id="left-margin" style="fill:#00AEEF;stroke:none;opacity:0.4;" width="8.74023" x="1392.94" y="1030.79"/>
  <rect height="119.336" id="right-margin" style="fill:#00AEEF;stroke:none;opacity:0.4;" width="8.74023" x="1498.01" y="1030.79"/>
 </g>
 <g id="Symbols">
  <g id="Black-L" transform="matrix(1 0 0 1 2860.08 1556)">
   <path d="M 106.25 -17.2363 C 75.1953 -17.2363 55.9082 -35.791 55.9082 -66.2109 C 55.9082 -73.7305 57.4219 -82.4707 59.8633 -87.207 C 60.9863 -89.4043 61.5723 -91.3086 61.5723 -93.0176 C 61.5723 -95.8496 59.668 -98.0469 56.3965 -98.0469 C 54.8828 -98.0469 53.0273 -97.6562 50.9277 -96.8262 C 27.0508 -87.207 11.2793 -63.2324 11.2793 -37.1582 C 11.2793 -0.195312 38.623 26.5625 75.5371 26.5625 C 101.416 26.5625 124.268 11.2305 133.838 -11.1328 C 134.912 -13.5742 135.352 -15.7227 135.352 -17.334 C 135.352 -20.3125 133.447 -22.2168 130.762 -22.2168 C 128.906 -22.2168 126.855 -21.6309 124.512 -20.459 C 120.361 -18.5547 113.184 -17.2363 106.25 -17.2363 Z"/>
  </g>
  <g id="Heavy-L" transform="matrix(1 0 0 1 2563.57 1556)">
   <path d="M 106.494 -16.2598 C 74.8047 -16.2598 54.8828 -35.5957 54.8828 -66.748 C 54.8828 -74.3164 56.3965 -83.2031 58.7891 -88.0859 C 59.8145 -90.0391 60.3027 -91.6992 60.3027 -93.1152 C 60.3027 -95.7031 58.4961 -97.7539 55.5176 -97.7539 C 54.1992 -97.7539 52.4902 -97.4609 50.5859 -96.7285 C 26.9531 -87.1582 11.2793 -63.0371 11.2793 -36.9629 C 11.2793 -0.195312 38.7207 26.5137 75.4395 26.5137 C 101.514 26.5137 124.561 10.9863 133.691 -10.9375 C 134.619 -13.0859 134.961 -15.0391 134.961 -16.3574 C 134.961 -19.1895 133.154 -20.9473 130.664 -20.9473 C 129.102 -20.9473 127.393 -20.5078 125.342 -19.5312 C 120.996 -17.6758 113.672 -16.2598 106.494 -16.2598 Z"/>
  </g>
  <g id="Bold-L" transform="matrix(1 0 0 1 2267.05 1556)">
   <path d="M 106.738 -15.2344 C 74.4141 -15.2344 53.7109 -35.3516 53.7109 -67.3828 C 53.7109 -75 55.2734 -83.9844 57.666 -89.0625 C 58.4961 -90.7715 58.8379 -92.1387 58.8379 -93.2617 C 58.8379 -95.5078 57.2266 -97.4609 54.4922 -97.4609 C 53.418 -97.4609 51.8555 -97.2168 50.2441 -96.582 C 26.8555 -87.1094 11.2793 -62.793 11.2793 -36.7676 C 11.2793 -0.146484 38.8672 26.416 75.3906 26.416 C 101.611 26.416 124.854 10.6934 133.545 -10.7422 C 134.277 -12.5488 134.57 -14.2578 134.57 -15.332 C 134.57 -17.9199 132.764 -19.5801 130.518 -19.5801 C 129.297 -19.5801 127.979 -19.2383 126.27 -18.457 C 121.777 -16.748 114.209 -15.2344 106.738 -15.2344 Z"/>
  </g>
  <g id="Semibold-L" transform="matrix(1 0 0 1 1970.49 1556)">
   <path d="M 106.934 -14.4531 C 74.1211 -14.4531 52.9297 -35.1562 52.9297 -67.8223 C 52.9297 -75.4395 54.4922 -84.5215 56.8359 -89.7461 C 57.5684 -91.3086 57.8125 -92.4805 57.8125 -93.3594 C 57.8125 -95.4102 56.3477 -97.2656 53.8086 -97.2656 C 52.8809 -97.2656 51.4648 -97.0703 49.9512 -96.4844 C 26.8066 -87.1094 11.2793 -62.6465 11.2793 -36.6211 C 11.2793 -0.146484 38.916 26.3672 75.3418 26.3672 C 101.66 26.3672 125.098 10.4492 133.447 -10.5469 C 134.082 -12.1582 134.277 -13.7207 134.277 -14.5996 C 134.277 -17.041 132.52 -18.6035 130.469 -18.6035 C 129.395 -18.6035 128.369 -18.3594 126.904 -17.7734 C 122.314 -16.0645 114.551 -14.4531 106.934 -14.4531 Z"/>
  </g>
  <g id="Medium-L" transform="matrix(1 0 0 1 1673.87 1556)">
   <path d="M 107.08 -13.916 C 73.877 -13.916 52.3438 -35.0586 52.3438 -68.1641 C 52.3438 -75.7812 53.9062 -84.9121 56.25 -90.2832 C 56.8848 -91.6504 57.0312 -92.6758 57.0312 -93.457 C 57.0312 -95.3125 55.7129 -97.1191 53.3203 -97.1191 C 52.4902 -97.1191 51.123 -96.9238 49.8047 -96.4355 C 26.7578 -87.0605 11.2793 -62.5488 11.2793 -36.4746 C 11.2793 -0.146484 39.0137 26.3184 75.293 26.3184 C 101.709 26.3184 125.244 10.3027 133.35 -10.4492 C 133.936 -11.9141 134.082 -13.3301 134.082 -14.0625 C 134.082 -16.3574 132.324 -17.9199 130.42 -17.9199 C 129.492 -17.9199 128.662 -17.6758 127.393 -17.1875 C 122.705 -15.5762 114.844 -13.916 107.08 -13.916 Z"/>
  </g>
  <g id="Regular-L" transform="matrix(1 0 0 1 1377.31 1556)">
   <path d="M 107.227 -13.1836 C 73.584 -13.1836 51.5625 -34.8633 51.5625 -68.5547 C 51.5625 -76.2207 53.125 -85.4492 55.4199 -90.9668 C 55.957 -92.1875 56.0547 -93.0176 56.0547 -93.5547 C 56.0547 -95.2148 54.834 -96.9238 52.6367 -96.9238 C 51.9531 -96.9238 50.7324 -96.7773 49.5605 -96.3379 C 26.6602 -87.0605 11.2793 -62.4023 11.2793 -36.3281 C 11.2793 -0.146484 39.0625 26.2695 75.2441 26.2695 C 101.807 26.2695 125.488 10.1074 133.252 -10.3027 C 133.691 -11.5234 133.789 -12.793 133.789 -13.3301 C 133.789 -15.4785 132.08 -16.9434 130.322 -16.9434 C 129.639 -16.9434 129.053 -16.8457 128.027 -16.5039 C 123.193 -14.8926 115.234 -13.1836 107.227 -13.1836 Z"/>
  </g>
  <g id="Light-L" transform="matrix(1 0 0 1 1081.8 1556)">
   <path d="M 105.176 -12.9395 C 72.168 -12.9395 49.8047 -35.1074 49.8047 -68.2129 C 49.8047 -76.6602 51.123 -84.8145 53.5645 -90.5762 C 54.0039 -91.5039 54.0527 -92.2363 54.0527 -92.7246 C 54.0527 -94.2871 52.8809 -95.8008 50.9766 -95.8008 C 50.4395 -95.8008 49.5117 -95.6543 48.6328 -95.3125 C 26.3672 -86.084 11.2793 -61.9629 11.2793 -36.4746 C 11.2793 -1.41602 38.4766 24.9512 73.584 24.9512 C 99.3652 24.9512 123.291 9.17969 130.957 -11.0352 C 131.299 -11.9629 131.396 -12.8906 131.396 -13.3789 C 131.396 -15.332 129.883 -16.6504 128.223 -16.6504 C 127.734 -16.6504 127.246 -16.5527 126.514 -16.3086 C 121.729 -14.7461 113.477 -12.9395 105.176 -12.9395 Z"/>
  </g>
  <g id="Thin-L" transform="matrix(1 0 0 1 786.696 1556)">
   <path d="M 102.49 -12.6465 C 70.2637 -12.6465 47.4609 -35.4492 47.4609 -67.7734 C 47.4609 -77.2461 48.4863 -83.9355 51.0742 -90.0879 C 51.3672 -90.6738 51.4648 -91.2109 51.4648 -91.6016 C 51.4648 -93.0664 50.3418 -94.2871 48.8281 -94.2871 C 48.3887 -94.2871 47.9004 -94.1895 47.4121 -93.9941 C 25.9277 -84.8145 11.2793 -61.377 11.2793 -36.6211 C 11.2793 -3.07617 37.6953 23.1934 71.3867 23.1934 C 96.1426 23.1934 120.361 7.91016 127.979 -12.0117 C 128.174 -12.5 128.174 -13.0371 128.174 -13.4766 C 128.174 -15.0879 127.051 -16.3086 125.488 -16.3086 C 125.195 -16.3086 124.902 -16.2109 124.463 -16.1133 C 119.727 -14.5508 111.133 -12.6465 102.49 -12.6465 Z"/>
  </g>
  <g id="Ultralight-L" transform="matrix(1 0 0 1 490.815 1556)">
   <path d="M 101.074 -12.5 C 69.2871 -12.5 46.2402 -35.5957 46.2402 -67.5781 C 46.2402 -77.5391 47.1191 -83.4473 49.8535 -89.8438 C 50.0488 -90.2344 50.0977 -90.6738 50.0977 -91.0645 C 50.0977 -92.4805 49.0234 -93.5059 47.7539 -93.5059 C 47.3633 -93.5059 47.0703 -93.457 46.7773 -93.3105 C 25.7324 -84.1797 11.2793 -61.084 11.2793 -36.6699 C 11.2793 -3.90625 37.3047 22.2656 70.2637 22.2656 C 94.5312 22.2656 118.896 7.27539 126.416 -12.5 C 126.562 -12.793 126.514 -13.0859 126.514 -13.4766 C 126.514 -14.9414 125.586 -16.1133 124.072 -16.1133 C 123.877 -16.1133 123.682 -16.0645 123.438 -16.0156 C 118.701 -14.4531 109.961 -12.5 101.074 -12.5 Z"/>
  </g>
  <g id="Black-M" transform="matrix(1 0 0 1 2876.98 1126)">
   <path d="M 80.9082 -22.4609 C 58.0078 -22.4609 43.75 -36.084 43.75 -58.3008 C 43.75 -64.502 44.7754 -70.5566 46.7773 -74.1211 C 47.8027 -75.9766 48.4375 -77.7344 48.4375 -79.3945 C 48.4375 -81.9336 46.7285 -83.6426 44.043 -83.6426 C 42.6758 -83.6426 41.1621 -83.3008 39.4043 -82.6172 C 20.8984 -75.0488 8.74023 -56.9336 8.74023 -37.0117 C 8.74023 -8.78906 29.4434 12.0605 57.7148 12.0605 C 77.1973 12.0605 94.7266 0.634766 102.686 -17.2363 C 103.662 -19.3359 104.102 -21.1426 104.102 -22.6562 C 104.102 -25.0977 102.734 -26.6602 100.342 -26.6602 C 98.6328 -26.6602 96.6797 -26.0742 94.5312 -24.9512 C 91.5527 -23.3887 86.1328 -22.4609 80.9082 -22.4609 Z"/>
  </g>
  <g id="Heavy-M" transform="matrix(1 0 0 1 2580.15 1126)">
   <path d="M 81.6895 -21.4844 C 57.959 -21.4844 43.0664 -35.791 43.0664 -58.9844 C 43.0664 -65.0391 44.1895 -71.4844 46.1426 -75.1465 C 47.0215 -76.8555 47.5098 -78.3691 47.5098 -79.7363 C 47.5098 -81.9824 45.9961 -83.6914 43.5059 -83.6914 C 42.2852 -83.6914 40.8691 -83.3496 39.3066 -82.7148 C 20.8984 -75.2441 8.74023 -56.8359 8.74023 -36.8164 C 8.74023 -8.44727 29.7363 12.3047 58.1055 12.3047 C 77.9297 12.3047 95.6543 0.585938 103.125 -16.8457 C 103.955 -18.7012 104.346 -20.3613 104.346 -21.6309 C 104.346 -23.9258 102.93 -25.3906 100.781 -25.3906 C 99.3164 -25.3906 97.7051 -24.9023 95.8496 -23.9746 C 92.6758 -22.4609 87.1094 -21.4844 81.6895 -21.4844 Z"/>
  </g>
  <g id="Bold-M" transform="matrix(1 0 0 1 2283.31 1126)">
   <path d="M 82.6172 -20.3613 C 57.959 -20.3613 42.334 -35.4492 42.334 -59.7656 C 42.334 -65.625 43.5547 -72.5586 45.4102 -76.3672 C 46.1426 -77.832 46.4844 -79.1016 46.4844 -80.127 C 46.4844 -82.0801 45.166 -83.6914 42.8711 -83.6914 C 41.8945 -83.6914 40.5762 -83.4473 39.1602 -82.8613 C 20.8496 -75.4883 8.74023 -56.7383 8.74023 -36.5234 C 8.74023 -8.05664 30.0293 12.5977 58.4961 12.5977 C 78.7109 12.5977 96.6309 0.537109 103.613 -16.3574 C 104.297 -17.9688 104.59 -19.4336 104.59 -20.459 C 104.59 -22.5586 103.174 -23.9258 101.27 -23.9258 C 100.098 -23.9258 98.877 -23.584 97.3145 -22.9004 C 93.9453 -21.4844 88.2324 -20.3613 82.6172 -20.3613 Z"/>
  </g>
  <g id="Semibold-M" transform="matrix(1 0 0 1 1986.53 1126)">
   <path d="M 83.2031 -19.5801 C 57.9102 -19.5801 41.8457 -35.2051 41.8457 -60.3027 C 41.8457 -66.0156 43.1152 -73.291 44.9219 -77.1973 C 45.5566 -78.5156 45.8008 -79.5898 45.8008 -80.4199 C 45.8008 -82.1289 44.5801 -83.6914 42.4316 -83.6914 C 41.6504 -83.6914 40.3809 -83.4961 39.0625 -82.959 C 20.8496 -75.6348 8.74023 -56.6406 8.74023 -36.3281 C 8.74023 -7.76367 30.2734 12.8418 58.7891 12.8418 C 79.2969 12.8418 97.3145 0.488281 103.955 -16.0645 C 104.541 -17.4805 104.736 -18.8477 104.736 -19.6289 C 104.736 -21.6309 103.32 -22.9492 101.611 -22.9492 C 100.635 -22.9492 99.6582 -22.7051 98.3398 -22.1191 C 94.8242 -20.8008 88.9648 -19.5801 83.2031 -19.5801 Z"/>
  </g>
  <g id="Medium-M" transform="matrix(1 0 0 1 1689.74 1126)">
   <path d="M 83.6914 -19.043 C 57.8613 -19.043 41.4551 -35.0586 41.4551 -60.7422 C 41.4551 -66.3574 42.7734 -73.8281 44.5312 -77.7832 C 45.1172 -79.0527 45.2637 -79.9316 45.2637 -80.6152 C 45.2637 -82.1777 44.1406 -83.6914 42.1387 -83.6914 C 41.4062 -83.6914 40.2344 -83.4961 39.0137 -83.0566 C 20.8496 -75.7812 8.74023 -56.5918 8.74023 -36.2305 C 8.74023 -7.56836 30.4199 12.9883 58.9844 12.9883 C 79.6875 12.9883 97.8027 0.488281 104.199 -15.8203 C 104.736 -17.0898 104.883 -18.3594 104.883 -19.043 C 104.883 -20.9473 103.418 -22.2168 101.855 -22.2168 C 101.025 -22.2168 100.244 -22.0215 99.1211 -21.5332 C 95.459 -20.2637 89.5508 -19.043 83.6914 -19.043 Z"/>
  </g>
  <g id="Regular-M" transform="matrix(1 0 0 1 1392.94 1126)">
   <path d="M 84.2773 -18.2617 C 57.8613 -18.2617 40.9668 -34.8145 40.9668 -61.2793 C 40.9668 -66.748 42.2852 -74.5605 44.043 -78.6133 C 44.4824 -79.7363 44.5801 -80.4199 44.5801 -80.9082 C 44.5801 -82.2266 43.6035 -83.6914 41.6992 -83.6914 C 41.1621 -83.6914 39.9902 -83.5449 38.916 -83.1543 C 20.8496 -75.9277 8.74023 -56.4941 8.74023 -36.0352 C 8.74023 -7.32422 30.6152 13.1836 59.2285 13.1836 C 80.2734 13.1836 98.4863 0.439453 104.541 -15.4785 C 104.98 -16.6016 105.078 -17.7734 105.078 -18.2129 C 105.078 -20.0195 103.564 -21.2402 102.197 -21.2402 C 101.562 -21.2402 101.025 -21.0938 100.098 -20.8008 C 96.3379 -19.5801 90.2832 -18.2617 84.2773 -18.2617 Z"/>
  </g>
  <g id="Light-M" transform="matrix(1 0 0 1 1097.32 1126)">
   <path d="M 82.4219 -18.0664 C 56.543 -18.0664 39.4043 -35.0098 39.4043 -60.9375 C 39.4043 -67.1387 40.5273 -73.9258 42.334 -78.2715 C 42.7246 -79.1504 42.7734 -79.7363 42.7734 -80.127 C 42.7734 -81.3965 41.8457 -82.666 40.2344 -82.666 C 39.7949 -82.666 38.916 -82.5684 38.0859 -82.2266 C 20.5566 -75.0977 8.74023 -56.1523 8.74023 -36.1328 C 8.74023 -8.44727 30.0781 12.0117 57.7637 12.0117 C 78.0762 12.0117 96.5332 -0.390625 102.49 -16.1621 C 102.832 -16.9922 102.881 -17.8711 102.881 -18.2617 C 102.881 -19.873 101.611 -20.9961 100.342 -20.9961 C 99.8535 -20.9961 99.4141 -20.8984 98.7305 -20.6543 C 94.9707 -19.4336 88.7207 -18.0664 82.4219 -18.0664 Z"/>
  </g>
  <g id="Thin-M" transform="matrix(1 0 0 1 802.028 1126)">
   <path d="M 79.9805 -17.8223 C 54.834 -17.8223 37.2559 -35.3027 37.2559 -60.5469 C 37.2559 -67.6758 38.1348 -73.1445 40.1367 -77.832 C 40.3809 -78.3691 40.4297 -78.8086 40.4297 -79.1504 C 40.4297 -80.3223 39.5508 -81.3477 38.3301 -81.3477 C 37.9395 -81.3477 37.4512 -81.25 37.0117 -81.0547 C 20.2148 -73.9258 8.74023 -55.6152 8.74023 -36.2793 C 8.74023 -9.96094 29.3945 10.4004 55.8105 10.4004 C 75.2441 10.4004 93.8965 -1.51367 99.8047 -17.041 C 100 -17.5293 100.049 -18.0176 100.049 -18.3594 C 100.049 -19.6777 99.0723 -20.6543 97.8516 -20.6543 C 97.5586 -20.6543 97.3145 -20.5566 96.9238 -20.459 C 93.2129 -19.2871 86.6211 -17.8223 79.9805 -17.8223 Z"/>
  </g>
  <g id="Ultralight-M" transform="matrix(1 0 0 1 506.073 1126)">
   <path d="M 78.7598 -17.6758 C 53.9551 -17.6758 36.1816 -35.4492 36.1816 -60.3516 C 36.1816 -67.9199 36.9141 -72.7539 39.0137 -77.6367 C 39.1602 -77.9785 39.2578 -78.3691 39.2578 -78.6621 C 39.2578 -79.7852 38.3789 -80.6152 37.3047 -80.6152 C 37.0117 -80.6152 36.7188 -80.5664 36.4258 -80.4688 C 20.0195 -73.3398 8.74023 -55.3711 8.74023 -36.3281 C 8.74023 -10.6934 29.0527 9.61914 54.7852 9.61914 C 73.7305 9.61914 92.5781 -2.09961 98.4375 -17.4805 C 98.5352 -17.7734 98.5352 -18.0664 98.5352 -18.3594 C 98.5352 -19.5312 97.7539 -20.459 96.582 -20.459 C 96.3867 -20.459 96.2402 -20.4102 95.9961 -20.3613 C 92.2852 -19.1895 85.5469 -17.6758 78.7598 -17.6758 Z"/>
  </g>
  <g id="Black-S" transform="matrix(1 0 0 1 2889.19 696)">
   <path d="M 63.4766 -25.1465 C 45.459 -25.1465 34.2285 -35.8887 34.2285 -53.3691 C 34.2285 -58.2031 35.0586 -62.9883 36.6211 -65.7715 C 37.4023 -67.2363 37.8906 -68.6035 37.8906 -69.873 C 37.8906 -71.8262 36.5723 -73.1934 34.4727 -73.1934 C 33.3984 -73.1934 32.2266 -72.9004 30.8594 -72.3633 C 16.3574 -66.4551 6.83594 -52.2461 6.83594 -36.6211 C 6.83594 -14.4531 23.0957 1.85547 45.2637 1.85547 C 60.5469 1.85547 74.3164 -7.12891 80.5176 -21.0938 C 81.25 -22.7051 81.5918 -24.1211 81.5918 -25.293 C 81.5918 -27.1973 80.5176 -28.418 78.6621 -28.418 C 77.3438 -28.418 75.8301 -27.9785 74.1699 -27.0996 C 71.8262 -25.8789 67.5781 -25.1465 63.4766 -25.1465 Z"/>
  </g>
  <g id="Heavy-S" transform="matrix(1 0 0 1 2592.26 696)">
   <path d="M 64.3066 -24.4141 C 45.5566 -24.4141 33.8867 -35.6445 33.8867 -53.9551 C 33.8867 -58.5449 34.8145 -63.7695 36.3281 -66.6016 C 37.0117 -67.9688 37.4023 -69.1895 37.4023 -70.2148 C 37.4023 -71.9727 36.1816 -73.291 34.2285 -73.291 C 33.3008 -73.291 32.1289 -73.0469 30.8594 -72.5586 C 16.3574 -66.6992 6.83594 -52.1973 6.83594 -36.4258 C 6.83594 -14.0625 23.3887 2.19727 45.7031 2.19727 C 61.3281 2.19727 75.1953 -7.08008 81.0547 -20.7031 C 81.7383 -22.168 82.0312 -23.4863 82.0312 -24.5117 C 82.0312 -26.3184 80.9082 -27.4414 79.1992 -27.4414 C 78.0762 -27.4414 76.8066 -27.0996 75.3418 -26.3672 C 72.8516 -25.1953 68.5059 -24.4141 64.3066 -24.4141 Z"/>
  </g>
  <g id="Bold-S" transform="matrix(1 0 0 1 2295.32 696)">
   <path d="M 65.1855 -23.584 C 45.7031 -23.584 33.5449 -35.3516 33.5449 -54.5898 C 33.5449 -58.9844 34.5215 -64.6484 35.9375 -67.5781 C 36.5723 -68.7988 36.8164 -69.7754 36.8164 -70.6055 C 36.8164 -72.1191 35.791 -73.4375 33.9355 -73.4375 C 33.1543 -73.4375 32.0312 -73.2422 30.8594 -72.8027 C 16.4062 -66.9922 6.83594 -52.1484 6.83594 -36.2305 C 6.83594 -13.623 23.6816 2.58789 46.1914 2.58789 C 62.2559 2.58789 76.2207 -6.98242 81.6895 -20.2637 C 82.2754 -21.582 82.4707 -22.8027 82.4707 -23.584 C 82.4707 -25.293 81.2988 -26.416 79.834 -26.416 C 78.8574 -26.416 77.8809 -26.123 76.6113 -25.5371 C 73.9746 -24.4629 69.5312 -23.584 65.1855 -23.584 Z"/>
  </g>
  <g id="Semibold-S" transform="matrix(1 0 0 1 1998.44 696)">
   <path d="M 65.8203 -23.0469 C 45.8008 -23.0469 33.3008 -35.1562 33.3008 -54.9805 C 33.3008 -59.2285 34.3262 -65.2344 35.6934 -68.2129 C 36.2305 -69.3848 36.4258 -70.2148 36.4258 -70.8984 C 36.4258 -72.2168 35.498 -73.5352 33.7402 -73.5352 C 33.0566 -73.5352 31.9824 -73.3398 30.8594 -72.9492 C 16.4062 -67.1875 6.83594 -52.1484 6.83594 -36.084 C 6.83594 -13.3301 23.877 2.83203 46.5332 2.83203 C 62.8418 2.83203 76.9043 -6.93359 82.1289 -19.9707 C 82.6172 -21.1914 82.8125 -22.3145 82.8125 -22.9492 C 82.8125 -24.6094 81.5918 -25.6836 80.2246 -25.6836 C 79.4434 -25.6836 78.6133 -25.4395 77.5391 -25 C 74.7559 -23.9258 70.2637 -23.0469 65.8203 -23.0469 Z"/>
  </g>
  <g id="Medium-S" transform="matrix(1 0 0 1 1701.61 696)">
   <path d="M 66.3086 -22.6074 C 45.8496 -22.6074 33.1055 -35.0098 33.1055 -55.3223 C 33.1055 -59.4727 34.1797 -65.7227 35.5469 -68.75 C 36.0352 -69.8242 36.1328 -70.5566 36.1328 -71.0938 C 36.1328 -72.3145 35.2539 -73.584 33.5449 -73.584 C 32.959 -73.584 31.9336 -73.4375 30.8594 -73.0469 C 16.4551 -67.334 6.83594 -52.0996 6.83594 -35.9375 C 6.83594 -13.1348 24.0234 3.02734 46.7773 3.02734 C 63.3301 3.02734 77.4414 -6.93359 82.4707 -19.7266 C 82.9102 -20.8496 83.0566 -21.9727 83.0566 -22.5098 C 83.0566 -24.0723 81.7871 -25.0977 80.5664 -25.0977 C 79.834 -25.0977 79.1992 -24.9512 78.2227 -24.5605 C 75.3418 -23.5352 70.8008 -22.6074 66.3086 -22.6074 Z"/>
  </g>
  <g id="Regular-S" transform="matrix(1 0 0 1 1404.75 696)">
   <path d="M 66.8945 -22.0215 C 45.9473 -22.0215 32.8613 -34.8145 32.8613 -55.7617 C 32.8613 -59.7168 33.9844 -66.3086 35.3027 -69.3848 C 35.6934 -70.3613 35.7422 -70.9961 35.7422 -71.3867 C 35.7422 -72.4121 34.9609 -73.6816 33.3496 -73.6816 C 32.9102 -73.6816 31.8848 -73.584 30.8594 -73.1934 C 16.4551 -67.5293 6.83594 -52.0996 6.83594 -35.791 C 6.83594 -12.8418 24.2188 3.27148 47.1191 3.27148 C 63.916 3.27148 78.125 -6.88477 82.9102 -19.4336 C 83.252 -20.459 83.3496 -21.4844 83.3496 -21.875 C 83.3496 -23.3887 82.0801 -24.3652 80.957 -24.3652 C 80.4199 -24.3652 79.9316 -24.2676 79.1016 -24.0234 C 76.123 -23.0469 71.4844 -22.0215 66.8945 -22.0215 Z"/>
  </g>
  <g id="Light-S" transform="matrix(1 0 0 1 1108.99 696)">
   <path d="M 65.2832 -21.875 C 44.7754 -21.875 31.4453 -35.0098 31.4453 -55.5176 C 31.4453 -60.0586 32.4219 -65.7715 33.7891 -69.0918 C 34.1309 -69.873 34.1797 -70.3613 34.1797 -70.7031 C 34.1797 -71.7285 33.4473 -72.7539 32.0801 -72.7539 C 31.6895 -72.7539 30.9082 -72.7051 30.127 -72.4121 C 16.2109 -66.7969 6.83594 -51.7578 6.83594 -35.8887 C 6.83594 -13.8184 23.7793 2.24609 45.8008 2.24609 C 62.0117 2.24609 76.3672 -7.61719 81.1035 -20.0195 C 81.3477 -20.8008 81.4453 -21.582 81.4453 -21.9238 C 81.4453 -23.2422 80.3711 -24.1699 79.2969 -24.1699 C 78.8574 -24.1699 78.5156 -24.0723 77.8809 -23.877 C 74.9023 -22.9004 70.0684 -21.875 65.2832 -21.875 Z"/>
  </g>
  <g id="Thin-S" transform="matrix(1 0 0 1 813.551 696)">
   <path d="M 63.1348 -21.6309 C 43.3105 -21.6309 29.5898 -35.2539 29.5898 -55.1758 C 29.5898 -60.5469 30.3223 -65.0879 31.8359 -68.7012 C 32.0801 -69.1895 32.1289 -69.5801 32.1289 -69.8242 C 32.1289 -70.752 31.3965 -71.582 30.3711 -71.582 C 30.0781 -71.582 29.6387 -71.5332 29.1992 -71.3867 C 15.8691 -65.7715 6.83594 -51.3184 6.83594 -35.9863 C 6.83594 -15.1367 23.1445 0.830078 44.0918 0.830078 C 59.4727 0.830078 74.0723 -8.59375 78.7109 -20.8008 C 78.8574 -21.2402 78.9062 -21.6797 78.9062 -21.9727 C 78.9062 -23.0957 78.0762 -23.877 77.0996 -23.877 C 76.8555 -23.877 76.6113 -23.8281 76.2695 -23.6816 C 73.3398 -22.7539 68.2617 -21.6309 63.1348 -21.6309 Z"/>
  </g>
  <g id="Ultralight-S" transform="matrix(1 0 0 1 517.499 696)">
   <path d="M 62.0117 -21.5332 C 42.5293 -21.5332 28.6133 -35.3516 28.6133 -54.9805 C 28.6133 -60.791 29.248 -64.7461 30.8594 -68.5059 C 31.0059 -68.8477 31.0547 -69.1406 31.0547 -69.3848 C 31.0547 -70.2637 30.3711 -70.9961 29.4922 -70.9961 C 29.248 -70.9961 28.9551 -70.9473 28.6621 -70.8496 C 15.7227 -65.2344 6.83594 -51.0742 6.83594 -36.084 C 6.83594 -15.8203 22.8027 0.0976562 43.1641 0.0976562 C 58.1543 0.0976562 72.9004 -9.13086 77.4902 -21.1914 C 77.5879 -21.4844 77.5879 -21.7773 77.5879 -22.0215 C 77.5879 -22.9492 76.9043 -23.7305 75.9766 -23.7305 C 75.8301 -23.7305 75.6836 -23.6816 75.4395 -23.584 C 72.5586 -22.6562 67.2852 -21.5332 62.0117 -21.5332 Z"/>
  </g>
 </g>
</svg>
