<svg xmlns="http://www.w3.org/2000/svg" viewBox="0 0 359.42 359.43"><defs><style>.a{fill:#fff;fill-rule:evenodd;}</style></defs><path class="a" d="M.68,164c-.12,1.3-.22,2.61-.3,3.91,0,.27,0,.54,0,.82-.07,1.21-.14,2.42-.19,3.64l0,1c0,1.15-.07,2.29-.09,3.44,0,.39,0,.77,0,1.16,0,1.1,0,2.19,0,3.29,0,.42,0,.85,0,1.28,0,1.05,0,2.1.07,3.15l.06,1.39c0,1,.09,2,.15,3l.09,1.47c.07,1,.14,2,.22,2.95.05.51.09,1,.14,1.53.08,1,.18,1.92.28,2.88l.18,1.59c.11.94.23,1.88.36,2.81l.21,1.62.42,2.77c.09.55.17,1.1.27,1.64.15.92.32,1.84.48,2.75l.3,1.64c.18.92.37,1.84.57,2.77.11.52.21,1.05.33,1.58q.31,1.44.66,2.88c.11.48.22,1,.34,1.44.26,1.07.54,2.14.82,3.21.09.36.18.73.28,1.09A179.71,179.71,0,0,0,180.9,359.41l1.15,0A177.38,177.38,0,0,0,359.42,182.05c0-.35,0-.71,0-1.07,0-2.2,0-4.39-.07-6.59h0c0-.09,0-.18,0-.28q-.26-7.68-1.14-15.3c0-.12,0-.23,0-.35h0a179.69,179.69,0,0,0-225-152.32h0c-1.16.31-2.32.64-3.48,1l-.43.12-3.52,1.07-.29.09c-1.23.39-2.45.79-3.67,1.21l-.06,0a179,179,0,0,0-56.1,31.2h0l0,0A177.23,177.23,0,0,0,52.26,53l-.14.14A179.82,179.82,0,0,0,40,66.74l-.13.17q-3.87,4.8-7.45,9.93h0c-.61.87-1.22,1.74-1.81,2.63A179.76,179.76,0,0,0,14,110.21h0l0,0q-2.37,5.66-4.34,11.4l-.12.35q-2,5.75-3.5,11.56v0H6A177.71,177.71,0,0,0,1.18,159h0s0,.08,0,.12C1,160.54.85,162,.72,163.41.7,163.6.69,163.78.68,164Z"/></svg>