<svg xmlns="http://www.w3.org/2000/svg" viewBox="0 0 534.08 359.22"><defs><style>.a{fill:#fff;fill-rule:evenodd;}</style></defs><path class="a" d="M522.89,228.08c-7.63-5.37-18.36-10.81-32.34-16.7L487.19,210l-.95-.39-3.13-1.27-.36-.14c-1.31-.53-2.64-1.05-4-1.58h0c-9.73-3.8-20.63-7.74-32.59-11.79.31-4.28.48-8.61.48-13,0-.34,0-.67,0-1s0-.81,0-1.22a181.32,181.32,0,0,0-2.33-28.91l0-.16c-.3-1.88-.64-3.75-1-5.61l0-.09q-1.66-8.53-4.14-16.76c0-.06,0-.12-.05-.18q-2.46-8.2-5.67-16.07a1,1,0,0,1-.07-.15q-3.22-7.87-7.15-15.38l0,0a179.81,179.81,0,0,0-125-93l-.57-.11c-1.78-.34-3.55-.65-5.34-.93l-.14,0q-2.84-.45-5.69-.8l-.26,0c-1.68-.21-3.37-.39-5.06-.55L282.75.69c-1.41-.12-2.83-.23-4.26-.32L277.18.29Q272.14,0,267,0a178.76,178.76,0,0,0-94.22,26.68l-.15.1c-1.23.76-2.45,1.53-3.66,2.32l-.25.17c-1.18.77-2.34,1.55-3.5,2.34l-.31.22c-1.13.78-2.26,1.58-3.38,2.4l-.32.23c-1.12.82-2.23,1.65-3.32,2.49l-.3.22c-1.11.86-2.21,1.72-3.29,2.6l-.24.19c-1.12.9-2.22,1.82-3.31,2.74l-.15.13q-1.69,1.44-3.36,2.94h0A180.59,180.59,0,0,0,108.2,95.71l0,.05c-.7,1.32-1.39,2.66-2.06,4a.08.08,0,0,1,0,0h0c-.17.35-.35.69-.51,1C94.18,98.45,82.66,96.23,71,94.27q-5.23-.88-10.49-1.7c-8.5-1.27-17.07-2.37-26-2.94a108.78,108.78,0,0,0-13.91-.1,42.34,42.34,0,0,0-8.12,1.23,22.45,22.45,0,0,0-5.37,2.17c-.57.36-1.13.74-1.68,1.13a18.81,18.81,0,0,0-1.83,1.67,11.32,11.32,0,0,0-1.2,1.52,13.91,13.91,0,0,0-1.09,1.86l-.45,1a11.15,11.15,0,0,0-.73,2.83A12.68,12.68,0,0,0,0,104.6a15.85,15.85,0,0,0,.26,3A21.19,21.19,0,0,0,.93,110c.26.63.54,1.26.83,1.87a23.68,23.68,0,0,0,3.38,4.81,46.11,46.11,0,0,0,6.15,5.61A118.52,118.52,0,0,0,23,130.12c7.73,4.6,15.47,8.58,23.25,12.38,14,6.81,28.09,12.83,42.15,18.61l-.06.69c-.13,1.27-.24,2.54-.34,3.82,0,.33,0,.66-.07,1-.08,1.06-.14,2.12-.2,3.18,0,.48,0,1-.07,1.44,0,1-.08,1.93-.11,2.9,0,.44,0,.87,0,1.31,0,1.39,0,2.78,0,4.17,0,.3,0,.6,0,.91h0a179.61,179.61,0,0,0,104,162.06h0A177.59,177.59,0,0,0,223,353.76l.29.07c1.41.36,2.81.69,4.23,1l.88.19c1.23.27,2.45.53,3.68.77l1.23.24,3.37.61,1.47.24q1.59.25,3.18.48l1.62.23c1,.14,2.05.27,3.08.39l1.73.19c1,.11,2,.2,3,.3.6,0,1.19.11,1.79.15,1,.09,2,.15,3.06.22l1.76.11c1.1.06,2.2.1,3.31.13.51,0,1,.05,1.52.06,1.62.05,3.23.07,4.86.07h2.23A177.4,177.4,0,0,0,430.89,255c17.64,2.46,33.28,4.24,46.62,5.26,15.22,1.12,27.32,1.46,36.68.27,4.68-.65,8.85-1.48,13-4,.56-.37,1.06-.73,1.52-1.08a18.76,18.76,0,0,0,1.45-1.33l.63-.67c.3-.37.58-.75.83-1.11a15.11,15.11,0,0,0,1.2-2.08,1.78,1.78,0,0,0,.17-.4l.06-.15a1.85,1.85,0,0,1,.09-.23l.06-.18.4-1.15s.06-.28.17-.83a14.32,14.32,0,0,0,.27-2.5,15,15,0,0,0-1.8-7.06C529.9,233.52,526.67,230.83,522.89,228.08ZM33.77,110.72c-1.39-.71-2.74-1.43-4.07-2.17h.05c1.4,0,2.8-.09,4.23-.1,8,0,16.28.47,24.53,1.15s16.35,1.59,24.5,2.64h0c5.54.71,11.07,1.49,16.58,2.29a179.4,179.4,0,0,0-6.47,20.08c-12.49-4.35-24.92-9-37.14-13.9C48.37,117.59,40.83,114.32,33.77,110.72ZM440,230.07A178.21,178.21,0,0,0,444.42,210l.13.05h0c11,4.7,21.06,9.18,29.87,13.37l.31.15,3.93,1.89.67.33c1.27.62,2.52,1.23,3.73,1.84l2.94,1.48.72.37,2.52,1.3.25.13c6,3.16,11.17,6.08,15.22,8.67-4.81-.12-10.74-.56-17.57-1.38h0l-3.09-.39-.69-.09c-1.09-.14-2.2-.3-3.33-.46C468.58,235.65,455.13,233.23,440,230.07Z"/></svg>