<svg xmlns="http://www.w3.org/2000/svg" viewBox="0 0 534.08 359.22"><defs><style>.a{isolation:isolate;}.b{fill:#feeccc;}.c{fill:#fde0a4;}.d{fill:#f0cb8d;}.e{fill:#777673;opacity:0.4;mix-blend-mode:color-burn;}.f{fill:#f39800;}</style></defs><g class="a"><path class="b" d="M533.23,249.3l-.06.18a1.85,1.85,0,0,0-.09.23l-.06.15a1.78,1.78,0,0,1-.17.4,15.11,15.11,0,0,1-1.2,2.08c-.25.36-.53.74-.83,1.11l-.63.67a18.76,18.76,0,0,1-1.45,1.33c-.46.35-1,.71-1.52,1.08-4.18,2.54-8.35,3.37-13,4-9.36,1.19-21.46.85-36.68-.27s-33.32-3.3-54-6.31-43.85-6.95-68.95-12-52.1-11.33-80.36-19.05q-21.24-5.64-43.33-12.36t-45-14c-15.2-4.95-30.57-10.28-46.08-15.81q-11.62-4.17-23.35-8.55T93.08,163c-15.62-6.36-31.32-13-46.86-20.53-7.78-3.8-15.52-7.78-23.25-12.38a118.52,118.52,0,0,1-11.68-7.83,46.11,46.11,0,0,1-6.15-5.61,23.68,23.68,0,0,1-3.38-4.81c-.29-.61-.57-1.24-.83-1.87a21.19,21.19,0,0,1-.67-2.41,15.85,15.85,0,0,1-.26-3,12.68,12.68,0,0,1,.16-1.68,11.15,11.15,0,0,1,.73-2.83l.45-1a13.91,13.91,0,0,1,1.09-1.86,11.32,11.32,0,0,1,1.2-1.52,18.81,18.81,0,0,1,1.83-1.67c.55-.39,1.11-.77,1.68-1.13a22.45,22.45,0,0,1,5.37-2.17,42.34,42.34,0,0,1,8.12-1.23,108.78,108.78,0,0,1,13.91.1c8.89.57,17.46,1.67,26,2.94,17,2.59,33.6,5.78,50,9.3,8.2,1.76,16.34,3.6,24.42,5.47S151.05,111.06,159,113c15.93,3.83,31.59,7.91,47,11.93s30.51,8,45.25,12.14l43.16,12.21c28,8.1,54.5,15.61,78.91,22.88s46.78,14,66.51,20.55,36.77,12.82,50.72,18.68,24.71,11.33,32.34,16.7c3.78,2.75,7,5.44,9.38,9.68a15,15,0,0,1,1.8,7.06,14.32,14.32,0,0,1-.27,2.5c-.11.55-.17.83-.17.83Zm-20.34-6.86s0,.14-.13.44.35.92.36,1.47A5.21,5.21,0,0,0,514,247c.19.3.21,0-.33-.59a22.61,22.61,0,0,0-2.71-2.51c-5.11-4.14-14.92-9.84-27.85-16.3s-29.25-13.79-48.2-21.67-40.6-16.27-64.5-24.69-50.07-16.81-78.07-24.59c-14-4-28.4-7.8-43.2-11.49s-29.93-7.39-45.36-10.95-31.22-6.75-47.2-9.91q-12-2.36-24.13-4.55t-24.45-4C91.57,113.28,75,111,58.51,109.6c-8.25-.68-16.52-1.17-24.53-1.15a92.12,92.12,0,0,0-11.46.66,22.39,22.39,0,0,0-4.36.94c-.53.16-.71.37-.48.24a1.1,1.1,0,0,0,.37-.23,3,3,0,0,0,.67-.59,8.51,8.51,0,0,0,.72-.89,6.33,6.33,0,0,0,.63-1.21c.15-.42,0,.09,0,.09l-.14.38c.88-2.59.39-1.23.61-2,.05-.29.05-.65.07-.89a5.76,5.76,0,0,0-.1-1.42,3.24,3.24,0,0,0-.23-.88,1.31,1.31,0,0,0-.16-.43c-.09-.29,0-.09.41.26A27.5,27.5,0,0,0,24,105.08a95.23,95.23,0,0,0,9.82,5.64c7.06,3.6,14.6,6.87,22.21,10,15.26,6.17,30.86,11.84,46.47,17.12q11.72,4,23.42,7.67t23.28,7.4c15.48,4.81,30.87,9.28,46,13.66s30.05,8.65,44.69,12.65l43,11.52c28,7.32,54.35,14.39,78.78,20.59s46.83,11.82,66.75,16.24,37.37,7.69,51.65,9.72S505.5,240,512,239.49a27.38,27.38,0,0,0,3.64-.46c.78-.16,1-.3.72-.08a1.49,1.49,0,0,0-.33.27,3.84,3.84,0,0,0-.52.48l-.23.28a6.8,6.8,0,0,0-.54.69A6.38,6.38,0,0,0,514,242c-.12.34,0,.07,0,.07l.07-.14a1.74,1.74,0,0,1,.1-.23c.05-.12-.41-.31-.41-.31Z"/><circle class="c" cx="267.04" cy="179.61" r="179.61" transform="translate(-23.44 41.07) rotate(-8.43)"/><path class="d" d="M445.82,162.35A178.66,178.66,0,0,0,414.45,77c-26.92,37.3-70.7,80.76-135.7,98.21-59,15.84-101.43-.06-138.87-14.09-16.18-6.07-31.54-11.8-47.45-14.91-1,1.89-1.94,3.81-2.88,5.74a181.58,181.58,0,0,0-2.12,27.67c0,.3,0,.6,0,.91,19.22,7.76,37.9,20.39,56.09,32.7,20.07,13.6,39,26.43,55,29.82,40.61,8.61,59.15,12.54,146.35-44.15A239,239,0,0,1,445.82,162.35Z"/><path class="d" d="M230.46,72.21c36.28-19.1,66.1-44.23,87.15-65A179.29,179.29,0,0,0,271.69.06a225.74,225.74,0,0,0-57.07,7.72,180.1,180.1,0,0,0-108.52,92C146.69,103.57,188.4,94.34,230.46,72.21Z"/><path class="d" d="M441.76,210.69c-34.33,5.31-82,20.13-121.81,60-66.59,66.59-88,71.63-128.48,71.91a179.7,179.7,0,0,0,191.09-25.45c-9.73-7.4-16.46-16.32-18.46-27.08a21.36,21.36,0,0,1,4-16.74c8.54-11.76,30.28-20.94,66.08-27.84a178.66,178.66,0,0,0,9.25-32C442.89,212.55,442.33,211.62,441.76,210.69Z"/><path class="e" d="M374.57,39.1a246.06,246.06,0,0,1,9.56,67.73A246.65,246.65,0,0,1,200.49,345.38,177.4,177.4,0,0,0,374.57,39.1Z"/><path class="b" d="M533.8,247.32a14.32,14.32,0,0,0,.27-2.5,15,15,0,0,0-1.8-7.06c-2.37-4.24-5.6-6.93-9.38-9.68-7.63-5.37-18.36-10.81-32.34-16.7-9.89-4.16-21.38-8.54-34.25-13.06-3.81,4-7.81,7.85-11.75,11.74,14.83,6.32,27.8,12.23,38.51,17.58,8.87,4.43,16.22,8.49,21.65,12A218.56,218.56,0,0,1,480,237.27c-14.28-2-31.73-5.29-51.65-9.72s-42.34-10-66.75-16.24S310.78,198,282.82,190.72l-43-11.52c-14.64-4-29.57-8.2-44.69-12.65s-30.53-8.85-46-13.66q-11.61-3.6-23.28-7.4t-23.42-7.67C86.84,132.54,71.24,126.87,56,120.7c-7.61-3.11-15.15-6.38-22.21-10q-2.09-1.06-4.07-2.17c1.41,0,2.84-.09,4.28-.1,8,0,16.28.47,24.53,1.15s16.35,1.59,24.5,2.64a67.78,67.78,0,0,1-8.53-17.38q-6.95-1.2-14-2.29c-8.5-1.27-17.07-2.37-26-2.94a108.78,108.78,0,0,0-13.91-.1,42.34,42.34,0,0,0-8.12,1.23,22.45,22.45,0,0,0-5.37,2.17c-.57.36-1.13.74-1.68,1.13a18.81,18.81,0,0,0-1.83,1.67,11.32,11.32,0,0,0-1.2,1.52,13.91,13.91,0,0,0-1.09,1.86l-.45,1a11.15,11.15,0,0,0-.73,2.83A12.68,12.68,0,0,0,0,104.6a15.85,15.85,0,0,0,.26,3A21.19,21.19,0,0,0,.93,110c.26.63.54,1.26.83,1.87a23.68,23.68,0,0,0,3.38,4.81,46.11,46.11,0,0,0,6.15,5.61A118.52,118.52,0,0,0,23,130.12c7.73,4.6,15.47,8.58,23.25,12.38,15.54,7.57,31.24,14.17,46.86,20.53q11.73,4.74,23.41,9.21t23.35,8.55c15.51,5.53,30.88,10.86,46.08,15.81s30.23,9.53,45,14,29.17,8.6,43.33,12.36c28.26,7.72,55.29,13.88,80.36,19.05s48.28,9,68.95,12,38.81,5.15,54,6.31,27.32,1.46,36.68.27c4.68-.65,8.85-1.48,13-4,.56-.37,1.06-.73,1.52-1.08a18.76,18.76,0,0,0,1.45-1.33l.63-.67c.3-.37.58-.75.83-1.11a15.11,15.11,0,0,0,1.2-2.08,1.78,1.78,0,0,0,.17-.4l.06-.15a1.85,1.85,0,0,1,.09-.23l.06-.18.4-1.15S533.69,247.87,533.8,247.32Z"/><path class="b" d="M17.92,110.14a1,1,0,0,1-.24.15C17.49,110.4,17.6,110.28,17.92,110.14Z"/><path class="f" d="M514,242c0-.09.11-.19.15-.29a1.56,1.56,0,0,0-.1.22l-.07.14S513.89,242.37,514,242Z"/><path class="f" d="M514,247a4.6,4.6,0,0,1-.29-.53C514.15,247.07,514.13,247.33,514,247Z"/></g></svg>