<svg xmlns="http://www.w3.org/2000/svg" viewBox="0 0 359.43 359.43"><defs><style>.a{isolation:isolate;}.b{fill:#bbc895;}.c{fill:#9fa778;}.d{fill:#acb684;}.e{fill:#777673;opacity:0.4;mix-blend-mode:color-burn;}</style></defs><g class="a"><path class="b" d="M328.85,280A179.7,179.7,0,1,0,79.47,328.85,179.69,179.69,0,0,0,328.85,280Z"/><path class="c" d="M261.63,339.68a1111,1111,0,0,1-123.18-71.9A1099.39,1099.39,0,0,1,1.19,159a180.56,180.56,0,0,0,6.29,72,1100.46,1100.46,0,0,0,103.05,78.32q40.07,26.93,81.16,49.7A180.44,180.44,0,0,0,261.63,339.68Z"/><path class="c" d="M65.63,40.84a179.33,179.33,0,0,0-33.24,36,1070.25,1070.25,0,0,0,151.75,123A1082.46,1082.46,0,0,0,327.8,281.5c.35-.52.71-1,1.05-1.54a179.55,179.55,0,0,0,21.09-42.56,1107.17,1107.17,0,0,1-137.89-79.12A1096,1096,0,0,1,65.63,40.84Z"/><path class="d" d="M14,110.22a177.45,177.45,0,0,0-8,23.37c46.56,37.14,96.49,73.67,149.28,109.16Q221,286.9,286.1,324.59a178,178,0,0,0,18.88-16c-45.32-26.13-91-54.64-136.63-85.3C113.88,186.69,62.2,148.8,14,110.22Z"/><path class="d" d="M133.19,6.15Q125.5,8.2,118,11q62.82,45.84,131.32,91.89,55.67,37.41,110,71.56c-.16-5.33-.56-10.65-1.19-15.93Q307.83,126.65,256.5,92.16,192.74,49.31,133.19,6.15Z"/><path class="e" d="M287.35,39.32a246,246,0,0,1,9.56,67.73,247.83,247.83,0,0,1-72.3,174.56,247.79,247.79,0,0,1-111.34,64A177.4,177.4,0,0,0,287.35,39.32Z"/></g></svg>