<svg xmlns="http://www.w3.org/2000/svg" width="668" height="668" viewBox="0 0 668 668">
  <defs>
    <style>
      .cls-1 {
        fill: #fff;
      }

      .cls-2 {
        fill: #323232;
        fill-rule: evenodd;
      }
    </style>
  </defs>
  <rect id="圆角矩形_1" data-name="圆角矩形 1" class="cls-1" width="668" height="668" rx="334" ry="334"/>
  <path id="形状_2" data-name="形状 2" class="cls-2" d="M146.941,200.531c4.452-3.467,12.638.938,19.647-2.817s14.041-4.693,16.849-2.334c2.8,2.334,6.54,5.631,18.7,5.151,12.168-.459,21.984,4.212,27.121,2.816,5.16-1.4,5.16-3.755,14.508-1.878s28.071,7.967,30.879,9.845,11.689,7.051,6.073,14.079-8.425,9.845-9.361,17.354,1.416,16.872-1.392,15.019c-2.808-1.878-14.51-15.019-12.636-11.265s-0.937,14.056,9.36,18.293c10.284,4.212,13.092,8.906,24.326,9.844s25.573,10.325,42.951,6.57,46.383-18.773,67.9-17.834,28.526,8.448,39.758-1.4,35.079-40.34,35.079-52.542c0-12.179-7.021-26.74-13.093-30.952s-29.006-25.321-24.794-30.5c4.212-5.152,16.37-3.274,28.994,2.816,12.637,6.113,50.044,20.651,38.836,55.815-11.234,35.189-36.027,61.447-33.688,71.315,2.341,9.844,16.839,27.2,18.254,36.1,1.393,8.9,3.264,38,6.54,51.6s0,24.863,7.477,34.707,12.625,23.924,12.625,29.075c0,5.175,7.968,23.924,8.905,30.953,0.935,7.052-.937,16.414-3.745,21.588-2.807,5.152-14.5,6.091-19.657,6.571-5.137.459-11.689-6.571-7.945-9.387s5.617-4.235,6.085-8.9c0.468-4.694-.948-14.538-4.213-22.987s-3.744-18.171-14.5-25.753c-10.764-7.557-15.433-17.883-16.848-13.189-1.393,4.692-.937,12.659-1.873,19.712-0.937,7.028,1.873,13.6,1.873,19.687s-0.937,13.6-6.554,14.081c-5.591.457-20.113,4.212-23.377-.48-3.264-4.67-5.616-6.571-.936-10.3,4.68-3.755,9.361-10.325,7.489-18.291-1.872-7.992-1.872-16.416-9.361-22.529-7.489-6.089-19.634-18.292-21.986-21.566-2.328-3.3-3.744-1.877-12.156.939s-33.207,7.485-45.376,11.24-24.794,9.387-29.931,9.387-6.084.939-6.084,4.212c0,3.3-3.744,41.759-4.669,46.453s0,22.552,1.393,27.7c1.405,5.127,5.149,17.788,3.744,23.9-1.405,6.09-14.5,9.362-20.581,9.844-6.084.457-17.293,2.816-18.242-4.693-0.924-7.51-.468-9.845,2.342-13.6s2.807-15.018,2.339-27.68,0.936-21.588-.936-32.371,2.339-21.9-6.553-22.457c-8.88-.53-21.518,1.95-26.654,0-5.136-1.926-9.361,6.041-9.828,14.49s0.467,30.952.467,38.919c0,7.99-1.4,21.589-1.872,26.283s-6.552,12.66-12.157,13.117c-5.6.482-23.857,0.939-24.324-2.792-0.458-3.755-6.553-9.386-2.81-13.141s7.489-2.816,7.957-9.845c0.468-7.051,0-29.1,0-38.943s-1.871-33.767-2.34-40.338S197,387.689,197,370.793c0-16.873-2.353-31.411-3.289-38.919s0.936-19.714-3.732-21.109c-4.681-1.421-15.9-1.878-21.518-6.113a22.474,22.474,0,0,1-9.361-19.689c0.481-8.9,6.085-16.414,6.553-20.169s-2.34-12.66-3.264-15.957c-0.948-3.273,3.264-18.293.456-20.17s-7.489.938-8.881,4.693c-1.416,3.755-7.956,15.019-8.892,12.2s2.808-5.152,2.339-9.846-2.808-7.051-4.679-14.08S142.73,203.8,146.941,200.531Z"/>
</svg>
