<svg xmlns="http://www.w3.org/2000/svg" viewBox="0 0 1880 1178.78"><defs><style>.cls-1{fill:#323232;}.cls-2{fill:#fff;fill-rule:evenodd;}.cls-3{isolation:isolate;}</style></defs><g id="图层_2" data-name="图层 2"><g id="图层_1-2" data-name="图层 1"><path id="圆角矩形_1" data-name="圆角矩形 1" class="cls-1" d="M940,0h0c184.46,0,334,149.54,334,334h0c0,184.46-149.54,334-334,334h0c-184.46,0-334-149.54-334-334h0C606,149.54,755.54,0,940,0Z"/><path id="形状_2" data-name="形状 2" class="cls-2" d="M752.94,200.53c4.45-3.47,12.64.94,19.65-2.82s14-4.69,16.85-2.33,6.54,5.63,18.69,5.15,22,4.21,27.13,2.82,5.16-3.76,14.5-1.88,28.07,8,30.88,9.84,11.69,7.06,6.08,14.08-8.43,9.85-9.36,17.36,1.41,16.87-1.4,15-14.51-15-12.63-11.27-.94,14.06,9.36,18.29,13.09,8.91,24.32,9.85,25.58,10.32,43,6.57,46.39-18.77,67.9-17.84,28.53,8.45,39.76-1.4,35.08-40.34,35.08-52.54-7-26.74-13.09-31-29-25.32-24.79-30.5,16.36-3.27,29,2.82,50,20.65,38.84,55.81-36,61.45-33.69,71.32,16.84,27.2,18.25,36.1,3.26,38,6.54,51.6,0,24.86,7.48,34.7,12.62,23.93,12.62,29.08,8,23.92,8.91,30.95-.94,16.42-3.75,21.59-14.49,6.09-19.65,6.57-11.69-6.57-7.95-9.39,5.62-4.23,6.09-8.9-1-14.54-4.22-23-3.74-18.18-14.49-25.76-15.44-17.88-16.85-13.19S1071,421,1070.06,428s1.88,13.6,1.88,19.68-.94,13.6-6.56,14.08-20.11,4.22-23.37-.48-5.62-6.57-.94-10.3,9.36-10.32,7.49-18.29-1.87-16.41-9.36-22.53-19.64-18.29-22-21.56-3.74-1.88-12.15.94S971.85,397,959.68,400.8s-24.79,9.38-29.93,9.38-6.08.94-6.08,4.22-3.75,41.75-4.67,46.45,0,22.55,1.39,27.7,5.15,17.79,3.74,23.9-14.49,9.36-20.58,9.84-17.29,2.82-18.24-4.69-.47-9.84,2.34-13.6,2.81-15,2.34-27.68.94-21.59-.93-32.37,2.34-21.9-6.56-22.46-21.51,1.95-26.65,0-9.36,6-9.83,14.49.47,30.95.47,38.92-1.41,21.59-1.87,26.28-6.56,12.66-12.16,13.12-23.86.94-24.33-2.79-6.55-9.39-2.8-13.14,7.48-2.82,7.95-9.85,0-29.1,0-38.94-1.87-33.77-2.34-40.34S803,387.68,803,370.78s-2.35-31.41-3.29-38.92.94-19.71-3.73-21.11-15.9-1.88-21.52-6.11A22.46,22.46,0,0,1,765.1,285c.48-8.9,6.08-16.41,6.55-20.17s-2.34-12.66-3.26-16,3.26-18.29.45-20.17-7.49.94-8.88,4.7-8,15-8.89,12.2,2.81-5.15,2.34-9.85-2.81-7-4.68-14.08S748.73,203.8,752.94,200.53Z"/><g id="一只狗的火星旅行计划" class="cls-3"><g class="cls-3"><path class="cls-1" d="M308,1102.28q6.45-13.8,9.15-13.8,2.55,0,11.48,7.5t8.92,10q0,1.2-2.85,1.2H208.07a9.31,9.31,0,0,0-5.4,1.65l-3.9-7.05a60.46,60.46,0,0,0,7.5.45Z"/><path class="cls-1" d="M395.12,1122.68q7.8,3,15.15,6.37t8,4.13a2.25,2.25,0,0,1,.67,1.5c0,1.2-.92,1.9-2.77,2.1a11.85,11.85,0,0,0-4.28,1.12,28,28,0,0,0-4.65,3.83,154.55,154.55,0,0,1-22,18.15,128.31,128.31,0,0,1-22.2,11.4q-12.3,5-13.8,5-.6,0-.6-.45t1.65-1.5q17.1-11.1,27.15-23.18A130.57,130.57,0,0,0,395.12,1122.68Zm2.85-66.6h42.6q1.2-2.7,2.78-5.55t2.4-4a2.51,2.51,0,0,1,2.17-1.2q1.35,0,9,4.72a98.51,98.51,0,0,1,10.58,7.2q2.92,2.47,2.92,4.28t-6.3,3.45v35.25q0,8,.15,10.2l.15,4.2a2,2,0,0,1-.67,1.42,11.55,11.55,0,0,1-3.3,1.73,44.47,44.47,0,0,1-7.35,2,38.51,38.51,0,0,1-6.3,1c-1.05,0-1.68-.25-1.88-.75a8.24,8.24,0,0,1-.3-2.7v-5.7h-47.1v5.25a2.52,2.52,0,0,1-.67,1.87,10.52,10.52,0,0,1-3.68,1.58,49.14,49.14,0,0,1-7.72,1.5,62.83,62.83,0,0,1-6.3.6c-1,0-1.58-.4-1.58-1.2l.3-6.6q.3-4.5.3-8.25v-44.4q0-6.6-.45-13A127.94,127.94,0,0,1,398,1056.08Zm46.65,50.55V1061H400.07a4.55,4.55,0,0,1-2.55,1.8v43.8Zm-15.3,18.75q4.35,0,17.55,4.8t20.55,10q7.35,5.25,10.73,11a22.3,22.3,0,0,1,3.37,11.25,12.64,12.64,0,0,1-3.3,9,10.35,10.35,0,0,1-7.8,3.53q-7.8,0-10.5-8.55a79.54,79.54,0,0,0-11.55-23,67.65,67.65,0,0,0-17.85-16.27c-1.1-.7-1.65-1.18-1.65-1.43S429,1125.38,429.32,1125.38Z"/><path class="cls-1" d="M528.17,1065.68q3.6-6.9,10.5-23.55,4.5,2.85,11,7.42a76,76,0,0,1,7.58,5.78,3.35,3.35,0,0,1,1.12,2.1c0,1.1-.92,1.75-2.77,2a10.35,10.35,0,0,0-5.18,2.1,57.46,57.46,0,0,0-6.82,6.6q-4.42,4.8-5.93,6.15,7.5,10.05,9,30.45,8.55-11.25,14.7-29.85a142.87,142.87,0,0,0,7.2-36.6q26.85,6.15,26.85,10,0,1.65-2.55,2.25a8.21,8.21,0,0,0-3.6,1.57,26.66,26.66,0,0,0-3.45,5.55q-2.4,4.59-7.5,12.83h32.25a49.76,49.76,0,0,1,2.85-5.7,21.19,21.19,0,0,1,2.85-4.28,2.73,2.73,0,0,1,1.8-.82q2.25,0,11.78,6.52t9.52,8.78q0,1.5-5.85,3.45v35.1q0,20-.3,31.5t-1.2,16.12a19.83,19.83,0,0,1-3.6,8.18,18.32,18.32,0,0,1-8.4,5.77,32.57,32.57,0,0,1-11.7,2.18,4.14,4.14,0,0,1-3-.9c-.6-.6-1-2.18-1.2-4.73a8.76,8.76,0,0,0-3.3-6.3q-3-2.47-12-4.72c-1.1-.3-1.65-.58-1.65-.83s1.7-.37,5.1-.37q13.5,0,17.33-1.8t4.5-8.4q.68-6.6.67-46.35,0-17.1-.15-27.45H575.12a144.07,144.07,0,0,1-11.55,15.6q5.1,1.5,11.4,4h11.55a51.27,51.27,0,0,1,3.08-5.63,2.42,2.42,0,0,1,2-1.12q1.2,0,7,3.15t8.1,4.65c1.55,1,2.32,2,2.32,2.92s-1.2,2-3.6,3.23v20.4q0,7,.15,9.75l.15,5.1a2.62,2.62,0,0,1-1.2,2.4,29.54,29.54,0,0,1-3.6,1.8,16.58,16.58,0,0,1-6.52,1,24.42,24.42,0,0,1-4.73-.23c-.4-.15-.6-.57-.6-1.27V1135H575v5.7a4.15,4.15,0,0,1-.6,2.55q-.6.75-4,2a21.51,21.51,0,0,1-7.12,1.2,25.06,25.06,0,0,1-4.05-.15c-.25-.1-.38-.45-.38-1l.45-9q.15-4.2.15-7.8v-32.55a93.11,93.11,0,0,1-12.6,11.25q.9,15,.9,27.45t-.75,19.8a37.4,37.4,0,0,1-2.85,11.85,14.7,14.7,0,0,1-5.55,6.6,28,28,0,0,1-8.4,3.22,37,37,0,0,1-7.27,1.13c-1.56,0-2.48-1.2-2.78-3.6-.6-4.1-1.78-6.88-3.52-8.33s-5.28-2.72-10.58-3.82c-1.1-.2-1.65-.47-1.65-.83s1.4-.52,4.2-.52q15.15,0,18.15-2.85t4-9.53a108.58,108.58,0,0,0,1-15.52q0-8.85-.15-15.15a90.08,90.08,0,0,1-7.72,7.42,137,137,0,0,1-12.38,9.15q-8.1,5.49-8.77,5.85a2.66,2.66,0,0,1-1.35.38c-.45,0-.68-.25-.68-.75s.45-1.15,1.35-2a83.51,83.51,0,0,0,15.3-18.68A197.71,197.71,0,0,0,529.67,1093a44.8,44.8,0,0,0-2.4-9,148.92,148.92,0,0,1-17.17,12.45q-10,6.3-11.18,6.3-.3,0-.3-.15,0-.6,1.95-2.4,14.4-12.9,22.05-24.6-4.65-6.75-21.15-18-2.1-1.5-2.1-1.95t.6-.45q1.65,0,11.85,3.3A72.75,72.75,0,0,1,528.17,1065.68Zm60.9,64.35v-30h-12.3a2.77,2.77,0,0,1-1.8,1.5V1130Z"/><path class="cls-1" d="M674.72,1072.28q.9-9.15.9-16.88t-.6-16.12q7.65.75,14.93,2a55.43,55.43,0,0,1,9.07,2c1.2.5,1.8,1.07,1.8,1.72s-.85,1.35-2.55,2.1-3.52,2.63-5.47,5.63-5.43,9.55-10.43,19.65h12.9a34.35,34.35,0,0,1,3.45-6.15,4.08,4.08,0,0,1,3.08-2c1.05,0,4.14,1.65,9.3,5s7.72,5.62,7.72,7-1.85,2.48-5.55,3.38v64q0,7,.15,9.9l.15,5.1a3.27,3.27,0,0,1-1.27,2.85,21.24,21.24,0,0,1-4.8,2.1,25.39,25.39,0,0,1-8.18,1.2q-2.55,0-2.55-3.45V1154H672.92v9a3.4,3.4,0,0,1-1,2.62q-1.05,1-4.8,1.88a30.28,30.28,0,0,1-7.05.9c-2.2,0-3.43-.15-3.67-.45a2.66,2.66,0,0,1-.38-1.65l.3-7q.3-7.35.3-13.35v-63.6q0-9.15-.3-15.6a134.74,134.74,0,0,1,17.55,5.55Zm-1.8,35.4h23.85v-30.45H675.92q-.6,3.3-3,4.35Zm23.85,5H672.92v36.45h23.85Zm27.9-15.3q-1.2.6-5.55,5t-4.8,4.35c-.3,0-.45-.17-.45-.53a6.35,6.35,0,0,1,.9-2.17q13.05-23.85,15.9-65.85,8.7,2,16.13,4.35c5,1.6,7.8,2.68,8.55,3.22a2.39,2.39,0,0,1,1.12,1.95c0,.75-1,1.38-2.92,1.88a6.26,6.26,0,0,0-4.28,3.9l-8.4,18.45h22q4.2-9,6.75-9,1.65,0,7.2,3.6t9.15,6.3q3.6,2.7,3.6,4.72t-6.6,3.68q-.15,22.35-1.12,46.72t-2.55,31.35q-1.58,7-5.78,10.65a20.54,20.54,0,0,1-10.8,4.65,74.26,74.26,0,0,1-9.52,1c-2,0-3.23-.28-3.83-.83s-1-2.12-1.27-4.72a10.16,10.16,0,0,0-4-6.9q-3.6-3-10.95-4.8c-1.9-.5-2.85-.92-2.85-1.28s.75-.52,2.25-.52l10.65.15q9.15,0,13.05-1.35a8.36,8.36,0,0,0,5.33-5.55q1.43-4.2,2.47-25.58t1-47.32H738.32A114.9,114.9,0,0,1,725,1096.13q13.65,3.75,20.55,8.85t6.9,11.4q0,6.3-3.07,9.75a10.08,10.08,0,0,1-7.88,3.45q-4.8,0-6.3-2t-1.5-8.92Q733.67,1102.58,724.67,1097.33Z"/><path class="cls-1" d="M883.67,1104.23a192.3,192.3,0,0,0,11.55-21.08,196.66,196.66,0,0,0,9.75-23,154.18,154.18,0,0,1,14,9.37c4.44,3.36,7.1,5.43,8,6.23a3.36,3.36,0,0,1,1.27,2.32,1.48,1.48,0,0,1-.82,1.5,9.06,9.06,0,0,1-3.23.38,11.1,11.1,0,0,0-5.47,1.8q-3.08,1.8-13.05,9.52t-20.78,16.88a74.17,74.17,0,0,0,19,28.72q12.82,12.09,34.27,20.63,2.55,1.05,2.55,1.65t-3,1.2q-11.85,2.25-19,14.1a2.31,2.31,0,0,1-2.1,1.35q-3.75,0-20.55-20.4t-19.35-56.1q-4.05,28.5-16.8,43.27t-35,24.3q-22.27,9.53-24.68,9.53-.45,0-.45-.15,0-.6,2.7-2.25,19.8-11.55,30.15-20.18a64.7,64.7,0,0,0,16.2-19.8q5.85-11.16,8-28a284.41,284.41,0,0,0,2.17-36.07q0-19.2-.15-32.25a161,161,0,0,1,17,2.25c4.5.9,7.1,1.63,7.8,2.17a2.51,2.51,0,0,1,1.05,2c0,.8-.6,1.42-1.8,1.87a4.12,4.12,0,0,0-2.47,2.85,29.62,29.62,0,0,0-.83,7.13l-.45,17.85A110.06,110.06,0,0,0,883.67,1104.23Zm-51.6-35.85q1.2,0,5.85,9.45t4.65,17.85q0,8.4-4.72,13.5a14.61,14.61,0,0,1-11,5.1,10.53,10.53,0,0,1-7.42-2.55,8.8,8.8,0,0,1-2.78-6.83q0-4.28,5.55-9.07a38.23,38.23,0,0,0,8.1-9.15,16.62,16.62,0,0,0,2.55-8.4,29.28,29.28,0,0,0-.52-6.3,16.35,16.35,0,0,1-.53-2.93C831.77,1068.6,831.87,1068.38,832.07,1068.38Z"/><path class="cls-1" d="M983.72,1117.73h24.45v-6.3q0-7.5-.3-13.35,22.8,1.2,22.8,4.5,0,1.5-3.6,3.45v11.7h24.75q4.2-7.95,5.55-9.83c.9-1.24,1.63-1.87,2.18-1.87s1.84.67,3.9,2,4.69,3.33,8,5.93a54,54,0,0,1,5.85,5.1,3.56,3.56,0,0,1,1,2q0,1.65-3.15,1.65h-48v17.85h17.85q4.8-9,6.15-11t2.25-1.95q.9,0,5.78,3.9t8.85,7.72c2.64,2.55,4,4.18,4,4.88q0,1.35-2.7,1.35h-42.15v20.85h31.35q4.2-7.2,6.23-10t3.22-2.85q1.65,0,5.85,3.45l9.3,7.5q4.95,4,5,5.47c0,1-.9,1.43-2.7,1.43H957a9.31,9.31,0,0,0-5.4,1.65l-3.9-7a60.46,60.46,0,0,0,7.5.45h52.95v-20.85H976.82a9.31,9.31,0,0,0-5.4,1.65l-3.9-7.05a60.46,60.46,0,0,0,7.5.45h33.15v-17.85H979.82A138.79,138.79,0,0,1,960,1142.4q-11.1,9.09-12.3,9.08-.15,0-.15-.3a10.35,10.35,0,0,1,1.65-2.85q10.2-14.1,13.95-23.7a94.82,94.82,0,0,0,5.4-21.3q9.9,1.35,16.13,2.55c4.14.8,6.52,1.42,7.12,1.87a2,2,0,0,1,.9,1.65c0,.66-.73,1.28-2.17,1.88S986.82,1114,983.72,1117.73Zm5.1-69.9h55q3.75-6,5.1-7.65t2.4-1.65q2,0,10.88,5.77t8.92,7.5c0,1.16-1.7,2.43-5.1,3.83v24.3l.3,13.8a2.88,2.88,0,0,1-.6,2.17,17.27,17.27,0,0,1-4.12,1.73,77.54,77.54,0,0,1-13.58,2.85,1.07,1.07,0,0,1-1-.83,10.35,10.35,0,0,1-.3-3.07H987.17q-1.2,2-6.6,3.3a40.59,40.59,0,0,1-9.75,1.35q-1.65,0-1.65-1.2l.3-6.6q.3-4.5.3-8.25v-30.75q0-6.6-.45-13Q982.37,1044.83,988.82,1047.83Zm57.9,21.75v-16.8H989.87a3.69,3.69,0,0,1-2.55,2.1v14.7Zm0,22.05v-17.1h-59.4v17.1Z"/><path class="cls-1" d="M1182.17,1063.28H1208q5.7-8.85,7-10.35c.84-1,1.57-1.5,2.17-1.5q2,0,10.73,6.45t8.77,8.85q0,1.5-3.45,1.5h-54a149,149,0,0,1-10.8,14.55,88.92,88.92,0,0,1,15.3,6q19-10.65,31.8-19.2,4.5,3.75,10.13,9t6.45,6.3a3.36,3.36,0,0,1,.82,2c0,.66-.85,1-2.55,1l-3.45-.15q-8.55,0-32.7,4.2a85.84,85.84,0,0,0,7,27.3,230.52,230.52,0,0,0,14.55-24.3q14.1,12.15,16.13,13.87c1.35,1.16,2,2.16,2,3a1.43,1.43,0,0,1-1,1.58,18.63,18.63,0,0,1-4.28.3q-7.8,0-26.1,8.4,11.1,22.05,35.85,34.5,1.8.9,1.8,1.5t-2.25,1.5a30.89,30.89,0,0,0-9.45,5.62c-3,2.55-4.78,4.5-5.32,5.85s-1.16,2-1.8,2a3.28,3.28,0,0,1-1.73-.45,40.44,40.44,0,0,1-4.35-4.2,69.8,69.8,0,0,1-7-8.63,91.67,91.67,0,0,1-6.23-10.42q-6,5.1-15.15,13.95t-13.35,13.5q-1.65,1.8-2.4,1.8-.9,0-2.85-3.6l-4.8-8.85q-3-5.4-3-6.15a1.35,1.35,0,0,1,.9-1.2,9.79,9.79,0,0,0,4-2.63,5.42,5.42,0,0,0,.9-3.22v-57.15q0-8.55-.15-10.5-4.05,4.35-10.2,9.75,4.2,3,4.2,4.5t-5,3.6q-.45,18.45-1.35,34.72t-1.65,20.25a16.74,16.74,0,0,1-3.07,7,17.39,17.39,0,0,1-7.28,5.18,22.12,22.12,0,0,1-8.25,2.1,3.55,3.55,0,0,1-3.9-3.15,11.84,11.84,0,0,0-4.72-7.88q-3.82-2.76-11.33-4.87a84.71,84.71,0,0,1-10,12.52q-5.94,6.23-7,6.23a.27.27,0,0,1-.3-.3q0-.9,2-3.9a83.35,83.35,0,0,0,11.85-31.88q2.7-17.32,2.7-47.17,0-7.95-.15-17.55h-6.3a9.31,9.31,0,0,0-5.4,1.65l-3.9-7a60.46,60.46,0,0,0,7.5.45h36.6q4.5-7.8,5.48-9.3a2.69,2.69,0,0,1,2.17-1.5q2.7,0,15.45,10.65,3.75-11.4,6.3-32.25,9,1.5,16,3.37t8.17,2.7a2.24,2.24,0,0,1,1.2,1.73q0,1.65-3.15,2.55-2.4.75-4.65,5Q1185,1058.63,1182.17,1063.28ZM1119,1039q10.2,0,16.8,4.42c4.4,3,6.6,6.15,6.6,9.6a11.29,11.29,0,0,1-3,8.25,9.71,9.71,0,0,1-7.2,3.08q-4.2,0-6.22-2a7.05,7.05,0,0,1-2.18-4.72q-.45-11.7-9-16.5-1.5-.75-1.5-1.2Q1113.32,1039,1119,1039Zm10.35,62q-1.95,34.5-14.4,53.85,6.6.6,11,.6a17.76,17.76,0,0,0,6.68-1,6,6,0,0,0,3.3-3.6q1-2.61,1.95-16.87t1.12-33Zm24.3-7.2a88.16,88.16,0,0,0,9.15-19.2h-32.1a21,21,0,0,0-.75,6.75q0,4.8-.3,14.7h7.2a73.59,73.59,0,0,1,4-6.75,2.35,2.35,0,0,1,1.87-1Q1144.82,1088.18,1153.67,1093.73Zm36.6-1.2-4.8.9a14.92,14.92,0,0,1-3,1.8v58.65a152,152,0,0,0,18.75-6.3Q1190.87,1125.38,1190.27,1092.53Z"/><path class="cls-1" d="M1273.52,1114.58q-7.35,5.25-14.47,9.52c-4.76,2.85-7.38,4.41-7.88,4.65a2.94,2.94,0,0,1-1.12.38c-.26,0-.38-.17-.38-.53s.5-1.07,1.5-2.17q15.6-17.4,23.48-29.78a180.42,180.42,0,0,0,14.32-28,71.35,71.35,0,0,1,12.83,7q8,5.25,8.47,5.77a2.15,2.15,0,0,1,.45,1.43q0,.9-2.25,1.65c-3.7,1.1-6.18,2.55-7.42,4.35s-4.58,5.45-10,11c2.8.9,4.2,1.83,4.2,2.77s-1,1.93-3.15,2.93v66.15a3.1,3.1,0,0,1-.75,2.17c-.5.55-3,1.35-7.42,2.4a48.24,48.24,0,0,1-10,1.58q-1,0-1-1.5l.45-14.1q.15-6.6.15-12.45Zm13.2-76.95q8.1,3.9,14,7.42t6.82,4.5a2.87,2.87,0,0,1,.9,1.88q0,1.5-2.4,2-4.5.6-10.65,5.7-8.55,7.05-24.07,15.52t-17.78,8.48a.53.53,0,0,1-.6-.6q0-.6,2-2.4,13.65-12.45,20.18-21.68A119.26,119.26,0,0,0,1286.72,1037.63Zm56,58.95h-31.5a9.31,9.31,0,0,0-5.4,1.65l-3.9-7a60.46,60.46,0,0,0,7.5.45h55.2q4.8-7.8,6.3-9.83c1-1.35,1.85-2,2.55-2q1.95,0,10.13,6.75t8.17,8.4q0,1.65-3,1.65h-24.15a6.83,6.83,0,0,1-1.5,3.15v61.5q0,7.35-1.65,10.8t-7.8,5.1q-6.15,1.65-16.8,1.65a5.87,5.87,0,0,1-3.82-1.28,3.83,3.83,0,0,1-1.58-3.07q0-5.25-2.85-7.73t-9.45-3.82q-1.65-.3-1.65-1.05t4.2-.75q10.95,0,16-1.28c3.35-.84,5-2.37,5-4.57Zm12.3-41.4a75.59,75.59,0,0,1,5.4-9q2.4-3.3,3.45-3.3,1.65,0,10,7.12t8.4,8.63q0,1.5-3,1.5h-54.15a9.31,9.31,0,0,0-5.4,1.65l-3.9-7a60.46,60.46,0,0,0,7.5.45Z"/><path class="cls-1" d="M1436.87,1143.23a148.46,148.46,0,0,0,21.3-11.85,4.7,4.7,0,0,1,2.25-1.05q.75,0,.75.6t-1.2,1.8q-6.45,6.9-17.32,20.4t-14.48,18.9q-1.05,1.5-1.65,1.5a1.3,1.3,0,0,1-1-.38c-.26-.25-1.18-1.57-2.78-4l-5.1-7.65c-1.8-2.8-3-4.73-3.67-5.78a5.41,5.41,0,0,1-1-2.1.91.91,0,0,1,.6-.82q5.55-3,5.55-7.95v-47.25h-13.05a9.31,9.31,0,0,0-5.4,1.65l-3.9-7a60.46,60.46,0,0,0,7.5.45h14q4.2-6.75,4.73-7.35a1.49,1.49,0,0,1,1.12-.6q1.05,0,9.45,4.42t8.4,6.68q0,2.25-5.1,3.9Zm-20.1-95.25q27.15,0,27.15,14.4a10.46,10.46,0,0,1-3.75,8.32c-2.5,2.16-4.85,3.23-7.05,3.23a8.39,8.39,0,0,1-5.85-2.33,9.8,9.8,0,0,1-3.15-5.62q-1.35-7.8-3.52-10.88t-7.73-5q-2.25-.9-2.25-1.5T1416.77,1048Zm63.3,47.25h-24.45a9.31,9.31,0,0,0-5.4,1.65l-3.9-7.05a60.46,60.46,0,0,0,7.5.45h26.25v-37.65q0-7.5-.3-13.35a104.81,104.81,0,0,1,12.83,1.5c5.44.9,8.62,1.65,9.52,2.25a2.46,2.46,0,0,1,1.35,2q0,1.95-3.75,3.3v42h12.6q6.9-13.2,9-13.2,1.65,0,9.68,7.35t8,9.45q0,1.35-2.85,1.35h-36.45v60.9q0,4.95.3,10.5l.15,5.1a4.19,4.19,0,0,1-1.05,2.85q-1,1.2-5.7,2.4a37.67,37.67,0,0,1-9.45,1.2q-2.85,0-3.6-.75a3.79,3.79,0,0,1-.75-2.7l.15-5.85q.3-6,.3-13.5Z"/><path class="cls-1" d="M1574.12,1091.78l-16,2.4a10.15,10.15,0,0,0-5.25,2.4l-4.65-7.2a59.94,59.94,0,0,0,7.5-.3l17.85-2.7q-1.05-10.05-1.5-22.73t-1.5-23.17q4.8.3,13.65,1.5t9.3,1.87a2.2,2.2,0,0,1,.45,1.13q0,2.1-4.5,4.35-.15,5.85-.15,14.7t.9,19.8l21.3-3.3a91.94,91.94,0,0,1,4-9.9,2.83,2.83,0,0,1,2.62-1.35q1.8,0,9.38,5.25t7.57,6.67c0,1-.75,1.53-2.25,1.73l-42.15,6.3a240.21,240.21,0,0,0,5.1,29.85,90.23,90.23,0,0,0,13.35-32.55q9.3,3.75,14.25,6.15a57.44,57.44,0,0,1,6.45,3.45,2.87,2.87,0,0,1,1.5,2.25c0,.8-.77,1.48-2.32,2a12.29,12.29,0,0,0-3.45,1.73,14.64,14.64,0,0,0-2.78,3.6q-11.25,18.45-21.75,29,4.35,9.6,9.83,15c3.65,3.6,6.34,5.4,8.1,5.4s3.3-1.37,4.65-4.13a79.27,79.27,0,0,0,4.42-12.67q.9-2.85,1.5-2.85c.4,0,.45,1.63.15,4.87s-.45,6.45-.45,9.6a30.58,30.58,0,0,0,1,8.4,23.55,23.55,0,0,0,4.35,7.88,6.36,6.36,0,0,1,1.5,4.2q0,2.4-3,4.2a14,14,0,0,1-7.35,1.8q-9.45,0-20.17-8t-18.08-22.42q-6.9,5.1-21.52,12.6t-16.88,7.5q-.9,0-.9-.6,0-1.2,3.45-3.45a160.69,160.69,0,0,0,31.5-26.4Q1577.12,1117.58,1574.12,1091.78Zm25.05-42q19.2,0,19.2,12.45,0,3.15-3,6.45a8.83,8.83,0,0,1-6.6,3.3q-5.85,0-7.65-7-2.4-9-7.8-11.85-2.7-1.35-2.7-2.1Q1590.62,1049.78,1599.17,1049.78Zm37,8.1a149.68,149.68,0,0,1,16.2,2.4q4.2,1,4.2,2.4t-3.15,3V1123l.3,13.5a2.93,2.93,0,0,1-1,2.47q-1,.83-7,2.18a44.2,44.2,0,0,1-8.48,1.35q-1.2,0-1.2-1.35l.3-5.7q.15-6.75.15-12.45v-53.1Q1636.52,1063.13,1636.22,1057.88Zm27.45-16.5q7.2.75,13.5,1.8c4.2.7,6.72,1.27,7.58,1.72s1.27,1,1.27,1.58q0,1.65-3.75,3v111.6q0,10.2-6.67,13.57a30.14,30.14,0,0,1-13.73,3.38q-3.6,0-4.35-4a13.91,13.91,0,0,0-4.8-8.33q-3.75-3.08-11-5.32-1.95-.6-2-1.35c0-.5,1.35-.62,4-.38s5.3.38,7.8.38q7.65,0,9.9-1.8t2.25-6.3V1055Q1663.82,1043.78,1663.67,1041.38Z"/></g></g><rect id="矩形_3" data-name="矩形 3" class="cls-1" y="978" width="1880" height="10"/><g id="Travel_Life" data-name="Travel Life" class="cls-3"><g class="cls-3"><path class="cls-1" d="M326.06,771.71c0,2.61-1.2,3.9-3.6,3.9s-4.1-2.59-5.1-7.8c-.41-3.6-.8-7.2-1.2-10.8a52.4,52.4,0,0,0-6.9-18.3q-6.3-9.9-20.7-12.59a64.86,64.86,0,0,0-15-1.5q-14.12.39-17.1.59V906.39q0,10.83,5.7,13.52,3,1.5,16.8,1.8,3.6.28,3.6,2.55c0,1.71-1.61,2.55-4.8,2.55a25.76,25.76,0,0,1-4.2-.3q-18-.59-25.5-.59-9.9,0-18.6.44t-22.2.45c-4.61,0-6.9-.8-6.9-2.4q0-2.7,12.9-3c6.19,0,10.2-1.3,12-3.91q1.5-2.4,1.5-12.32v-180q-29.7.31-36.9,3-18.9,6.91-22.2,36.9-.9,9-4.2,9-3.6,0-3.6-6.3,0-3.28.3-6.6l.6-6.9q.9-13.78,2.7-36.3H177l61.2.91q10.8.3,33.6,0l49.8-.91q.6,16.82,3.9,49.8a10.58,10.58,0,0,0,.3,2.25A14,14,0,0,1,326.06,771.71Z"/><path class="cls-1" d="M463.16,919q0,9.62-16.74,9.6-16.14,0-26.31-12.24a29,29,0,0,1-6-10.76q-1.5-5.37-3.59-25.39-1.49-12.86-8.22-17.93t-23.16-5.68v61.81q-.9,4.2,15,4.19c2.16,0,3.25.71,3.25,2.1s-1.4,2.1-4.2,2.1H345q-8.4,0-8.4-1.95,0-2.25,3-2.25h4.2c6.79,0,10.2-1.39,10.2-4.19V799.92c0-2.2-.56-3.65-1.65-4.36s-4-1-8.7-1-7.05-.79-7.05-2.4c0-1.39,1.39-2.1,4.2-2.1h56.7q20.09,0,32.25,8.22t12.15,21.65q0,14.64-12.9,23.75t-36.3,10.59q25.2,2.7,34.65,13.15T439.46,905q1.8,18.53,11.1,18.51,1.5,0,1.5-.87a9.11,9.11,0,0,0-.75-1.9,6.41,6.41,0,0,1-.75-2.48c0-3.69,2-5.55,6-5.55C461,912.71,463.16,914.81,463.16,919Zm-47.4-97q0-26.85-26.49-26.86-6.84,0-8.48,1.35c-1.09.9-1.63,3-1.63,6.41v48.94Q415.76,851.81,415.76,822Z"/><path class="cls-1" d="M602.06,925c0,1.2-2,1.8-6,1.8H537q-5.4,0-5.4-2.38t10.8-2.68c8.59-.2,12.9-1.19,12.9-3a41.44,41.44,0,0,0-1.8-5.66q-.62-2.39-6.9-20L543,883h-42.9q-12.31,30.91-12.3,35.7c0,1.8,1.2,2.81,3.6,3l3.9.3h4.5l2.7.91c2.4,0,3.6.6,3.6,1.81q0,2.09-6.3,2.08c-.6,0-4.16-.14-10.65-.45s-12.26-.44-17.25-.44h-2.7l-2.7.44-3.3.45h-.6q-4.8,0-4.8-1.8,0-2.1,3.9-2.4,5.4-.3,7.2-.61,5.08-.9,6.6-2.7,1.8-.9,14.7-34.29,5.08-13.53,9.9-25.26a58.88,58.88,0,0,0,2.4-6.32,59.7,59.7,0,0,1,2.4-6.32q5.1-12.33,14.4-37.29l4.52-12.6,2.08-5.41q1.8-4.5,3.6-4.5c.6,0,1.89,2.81,3.9,8.4q9,21.91,46.49,115.8,3.6,9.32,6.9,9.91a89.23,89.23,0,0,0,9.61.89C600.15,922.52,602.06,923.42,602.06,925Zm-60.91-47.09-19.3-51.27q-7.29,18-20.05,51.27Z"/><path class="cls-1" d="M734.35,791.58q0,2.8-5.1,2.17-8.4.32-11.4,2c-2,1.14-3.7,3.56-5.1,7.29L711,808q-16.82,42.62-42.61,113.7c-1.61,5-3.2,7.5-4.8,7.5s-3.2-2.3-4.8-6.9q-12-33-35-92.45-3.06-7.77-8.84-23.35-3.3-9.28-6.15-11t-14.55-1.64c-2.2,0-3.3-.61-3.3-1.81,0-1.8,1.4-2.69,4.2-2.69h58.5q7.8,0,7.8,2.39,0,2.12-4.5,2.7h-11.1q-9.3.32-9.3,2.44,0,1.21,15.58,42.57.6,1.2,18.57,49.92,2.12-5.67,12.75-32.79l12.38-33.08q8.82-22.16,8.82-25.76c0-2-1.7-3.09-5.1-3.3h-11.7c-1.6,0-2.4-.6-2.4-1.82q0-3.27,8.7-3.27h14.4q5.7.89,6.6.89a34.26,34.26,0,0,0,5.7-.89h9Q734.35,789.42,734.35,791.58Z"/><path class="cls-1" d="M850.75,894.25c0,.21-.15,1.48-.45,3.82a49.82,49.82,0,0,0-.45,6.25v17.39a22.7,22.7,0,0,0,.9,6l-50.07-.9-57.3.9q-6.33,0-6.33-2.38,0-2.72,3.6-2.72c6.4,0,10.15-.44,11.25-1.35s1.65-4.14,1.65-9.75V808.31c0-8.19-.71-12.54-2.1-13s-4.91-.75-10.5-.75c-2.4,0-3.6-.69-3.6-2.09,0-1.6,1.3-2.41,3.9-2.41h102.6v2.07l.3,4.44q.6,4.43,2.4,26.6a19,19,0,0,1,.3,3.55c0,2.57-.7,3.84-2.09,3.84-1.8,0-3.09-2-3.88-6q-4.18-22.78-15.84-26.7-6.57-2.09-31.06-2.1H778.75v56.1h7.14q19,0,23.5-3.14t6-17.25c.6-5.6,1.8-8.41,3.6-8.41,2,0,3,2,3,6q0,3.62-.45,11.1t-.45,11.4q0,19.51.67,26.7c.15,1.61.23,2.91.23,3.9q0,4.82-3,4.81-2.67,0-3.55-7.5-1.79-16.21-5.92-19.36t-23.38-3.14h-7.39v64.79q43.89-.29,51.66-2.4,11.94-3.28,14-28.8c.19-3,1.3-4.5,3.3-4.5S850.75,888.76,850.75,894.25Z"/><path class="cls-1" d="M977,899.51q0,16.82-.59,28.2a28.09,28.09,0,0,1-4.5.3c-.21,0-1.76-.15-4.66-.45s-6.65-.45-11.25-.45H942l-51.3-.6H866c-2.6,0-3.89-.65-3.89-2q0-1.69,11.69-2.54c2.2-.19,3.55-.69,4.06-1.5s.75-3,.75-6.61V813.17q0-16.84-2.7-17.74c-.81-.4-2.55-.61-5.25-.61a26.89,26.89,0,0,1-5.25-.3c-2.21,0-3.3-.8-3.3-2.4,0-1.4,1.3-2.11,3.91-2.11h48.56q5.71,0,5.72,2.54c0,1.12-3.3,1.78-9.89,2q-4.82.32-5.7,2.11c-.6,1.2-.91,5.52-.91,12.93V921.11q11.94.32,17.33.31,32.25,0,40.31-6.31,6.57-5.08,8.36-21.6.6-7.2,3.31-7.2C975.74,886.31,977,890.72,977,899.51Z"/><path class="cls-1" d="M1188.84,845.06q0,1.92-11.7,2.55c-5,.21-7.8,1-8.4,2.39,0,.21-.41,1.8-1.2,4.79l-2.1,8.66a95.54,95.54,0,0,1-16.5,34.66c1.2,2,3.1,5,5.7,9q5.68,10.15,9.9,12.39t18,2.54c3.6,0,5.4.91,5.4,2.7,0,1.21-1.1,1.8-3.3,1.8h-43.2q-1.51-2.09-7.5-12.59-16.82,14.7-44.4,14.69-21.6,0-35.25-10.47t-13.65-27.25q0-26.94,37.5-43.7-9.3-9.29-10.8-10.48-8.1-8.09-8.1-17.66a28.37,28.37,0,0,1,10.35-22.6q10.35-8.84,26.85-8.84,15.58,0,25.35,7.35t9.75,18.75q0,19.21-29.7,29.71l9.9,10.79q12.3,13.21,32.1,37.21,13.79-21.61,13.8-39.91c0-3.19-1.31-4.8-3.9-4.8h-1.5a40.76,40.76,0,0,1-5.7.3c-6.6,0-9.9-.79-9.9-2.4,0-1,1.39-1.59,4.2-1.8s12.49-.3,29.1-.3H1184C1187.23,842.51,1188.84,843.37,1188.84,845.06ZM1130.34,908q-13.8-21.81-48.6-56.76-17.1,12-17.1,31.67,0,16.43,9.6,27.33a31,31,0,0,0,24.3,10.9Q1116.54,921.11,1130.34,908ZM1112,815.81q0-10.48-4.8-17.25t-12.3-6.75a17.75,17.75,0,0,0-12.9,5,17,17,0,0,0-5.1,12.75q0,14.12,21.6,30.6Q1112,833.83,1112,815.81Z"/><path class="cls-1" d="M1412.63,902.81q0,7.82-.9,25.8h-3.29q-1.8,0-8.69-.6t-15.56-.59l-124.57-.91q-5.08,0-5.09-2.7,0-2.09,8.1-2.7,11.4-.58,13.65-2.55t2.25-11.25V738.71c0-7.39-.75-11.7-2.25-12.9s-6.85-1.8-16-1.8c-3.8,0-5.7-1.09-5.7-3.3,0-1.79,1.2-2.7,3.6-2.7h2.7q9.9.91,39.3.91c1.8,0,5.3-.16,10.5-.46s9.5-.45,12.9-.45h3.3c3.6,0,5.4,1,5.4,3a2.09,2.09,0,0,1-1.65,2.25c-1.1.3-4.55.56-10.35.75s-9.25,1.16-10.35,2.85-1.65,7-1.65,15.75v177q8.1.32,22.5.31,35.1,0,49.5-3.61t19.5-13.5q5.1-9.9,6-26.7c.19-2.59,1.34-3.9,3.45-3.9q3.75,0,3.45,4.5v26.1Z"/><path class="cls-1" d="M1480.73,924.71c0,1.21-.9,1.8-2.7,1.8h-50.4q-5.1,0-5.1-1.56,0-2.07,6.6-2.34,9-.6,9.45-2.11t.45-13V810.23q0-11.79-.6-13.75c-.4-1.31-1.9-2.06-4.5-2.27h-9c-1.8,0-2.7-.69-2.7-2.1s1.3-2.1,3.9-2.1h49.5c3.2,0,4.8.81,4.8,2.41,0,1.19-3.4,1.9-10.2,2.09q-4.2,0-5.1,1.35c-.6.9-.9,3.66-.9,8.25v113.1c0,2,.75,3.3,2.25,3.9s5,1.11,10.65,1.5C1479.53,922.82,1480.73,923.51,1480.73,924.71Z"/><path class="cls-1" d="M1604.33,826.34c0,2.59-.71,3.87-2.1,3.87q-3,0-3.88-5.79-2.1-16.18-8.67-22.89t-33.15-6.72q-7.76,0-20.3.31v57h6.84q19.64,0,24.1-3.6t6-21.3c.19-2.59,1.2-3.9,3-3.9,2,0,3,1.6,3,4.78,0,1.59-.11,3.79-.3,6.57s-.3,9.56-.3,20.3c0,1.79.09,4.78.3,9s.3,9.46.3,15.83v1.19c0,3.79-1.09,5.67-3.28,5.67-1.59,0-2.59-1.58-3-4.75q-2.08-18.11-5.66-21.38t-21.45-3.27h-9.53v57.9q-.62,5.71,4.13,6.9c1,.41,4,.6,9.14.6,2.75,0,4.13.71,4.13,2.1s-1.31,2.1-3.9,2.1h-50.1c-3.41,0-5.1-.69-5.1-2.1,0-1.59,1.39-2.4,4.2-2.4q9.29,0,10.8-1.35c1-.9,1.5-3.94,1.5-9.15V805.92q0-8.11-1.5-9.46c-1-.9-4.5-1.44-10.5-1.65-2.81,0-4.2-.89-4.2-2.7,0-1.59,2.1-2.4,6.3-2.4h57.3q32.1.31,42.3-1.2l.3,3,1.2,13.7,1.5,15.49C1604.12,824.86,1604.33,826.74,1604.33,826.34Z"/><path class="cls-1" d="M1728.52,894.25c0,.21-.15,1.48-.45,3.82a49.82,49.82,0,0,0-.45,6.25v17.39a22.7,22.7,0,0,0,.9,6l-50.06-.9-57.3.9q-6.35,0-6.34-2.38,0-2.72,3.6-2.72c6.4,0,10.15-.44,11.25-1.35s1.65-4.14,1.65-9.75V808.31q0-12.28-2.1-13c-1.4-.49-4.9-.75-10.5-.75-2.4,0-3.6-.69-3.6-2.09,0-1.6,1.3-2.41,3.9-2.41h102.6v2.07l.3,4.44q.6,4.43,2.4,26.6a18.16,18.16,0,0,1,.3,3.55c0,2.57-.7,3.84-2.09,3.84-1.79,0-3.09-2-3.88-6q-4.19-22.78-15.83-26.7-6.57-2.09-31.06-2.1h-15.24v56.1h7.15q19,0,23.5-3.14t5.95-17.25c.6-5.6,1.8-8.41,3.6-8.41,2,0,3,2,3,6q0,3.62-.45,11.1t-.45,11.4q0,19.51.68,26.7c.15,1.61.22,2.91.22,3.9q0,4.82-3,4.81c-1.77,0-3-2.5-3.55-7.5q-1.77-16.21-5.91-19.36t-23.38-3.14h-7.4v64.79q43.9-.29,51.67-2.4,11.94-3.28,14-28.8.3-4.5,3.3-4.5T1728.52,894.25Z"/></g></g></g></g></svg>