<svg id="图层_1" data-name="图层 1" xmlns="http://www.w3.org/2000/svg" viewBox="0 0 76 76"><defs><style>.cls-1{fill:#231815;}.cls-2{fill:#fff;}</style></defs><circle class="cls-1" cx="38" cy="38" r="38"/><path class="cls-2" d="M16.07,22.45c.52-.4,1.46.1,2.27-.33s1.62-.54,1.95-.27a2.65,2.65,0,0,0,2.16.6c1.41-.06,2.54.48,3.13.32s.6-.43,1.68-.22a20.32,20.32,0,0,1,3.57,1.14c.33.21,1.35.81.7,1.62a3.53,3.53,0,0,0-1.08,2c-.11.87.16,2-.16,1.73s-1.68-1.73-1.46-1.3-.11,1.62,1.08,2.11,1.51,1,2.81,1.14,3,1.19,5,.75,5.36-2.16,7.85-2,3.29,1,4.59-.16,4.06-4.65,4.06-6.06A5.17,5.17,0,0,0,52.7,19.9c-.7-.48-3.35-2.91-2.86-3.51s1.89-.38,3.35.32,5.78,2.38,4.49,6.44-4.17,7.08-3.9,8.22,2,3.13,2.11,4.16a59.88,59.88,0,0,0,.76,5.95c.38,1.57,0,2.86.86,4A7.42,7.42,0,0,1,59,48.83c0,.6.92,2.76,1,3.57a4.61,4.61,0,0,1-.43,2.48c-.33.6-1.68.71-2.27.76s-1.35-.76-.92-1.08.65-.49.7-1a7,7,0,0,0-.48-2.65c-.38-1-.44-2.09-1.68-3s-1.78-2.07-2-1.52a21.51,21.51,0,0,0-.21,2.27,14.41,14.41,0,0,0,.21,2.27c0,.7-.11,1.56-.76,1.62s-2.32.49-2.7-.06-.65-.75-.11-1.18a2.1,2.1,0,0,0,.87-2.11c-.22-.92-.22-1.89-1.08-2.6a22.88,22.88,0,0,1-2.54-2.48c-.27-.38-.44-.22-1.41.1s-3.84.87-5.24,1.3a26.16,26.16,0,0,1-3.46,1.08c-.6,0-.71.11-.71.49s-.43,4.81-.54,5.35a12.62,12.62,0,0,0,.17,3.19,7.86,7.86,0,0,1,.43,2.76c-.16.7-1.68,1.08-2.38,1.13s-2,.33-2.11-.54a1.89,1.89,0,0,1,.27-1.56,7.88,7.88,0,0,0,.27-3.19,27.45,27.45,0,0,0-.11-3.74C31.54,49.25,32,48,31,47.91a19.79,19.79,0,0,1-3.08,0c-.6-.23-1.09.69-1.14,1.67s0,3.56,0,4.48-.16,2.49-.21,3a2,2,0,0,1-1.41,1.51c-.65.06-2.76.11-2.81-.32s-.76-1.08-.32-1.51.86-.33.92-1.14,0-3.35,0-4.49-.22-3.89-.28-4.65S21.81,44,21.81,42a35.63,35.63,0,0,0-.38-4.49c-.11-.86.1-2.27-.44-2.43a7.66,7.66,0,0,1-2.48-.7,2.58,2.58,0,0,1-1.08-2.27,10.73,10.73,0,0,1,.75-2.33A7.48,7.48,0,0,0,17.86,28c-.11-.37.37-2.11.05-2.32s-.87.11-1,.54-.92,1.73-1,1.41.33-.6.27-1.14a11.84,11.84,0,0,0-.54-1.62A2.79,2.79,0,0,1,16.07,22.45Z"/></svg>